<?xml version="1.0" encoding="utf-8"?>
<svg version="1.1" id="Layer_1" xmlns="http://www.w3.org/2000/svg" xmlns:xlink="http://www.w3.org/1999/xlink" x="0px" y="0px"
	 viewBox="265 90 3150 1330" >
<style type="text/css">
	.st0{fill:#66499E;}
	.st1{fill:#BEBEBE;}
	.st2{fill:#2C2C2C;}
	.st3{fill:#CC66FF;}
</style>
<path class="st0" d="M2295.23,834.33c0.81,6.64,15.24,1.63,17.95,6.5c3.32,5.97,9.08,8.34,13.71,11.18
	c7.71,4.74,9.79,17.73,14.79,11.9c96-136.31,370.78-360.46,513.21-452.03c116.98-86.74,354.19-130.97,352.36,77.57
	c4.98,98.41-67.24,181.63-84.85,275.87c54.09,4.76,45.83,1.75,53.76-49.3c16.98-87.52,81.84-212.91,81.2-253.51
	c-0.55-34.92,2.07-121.8-141.22-171.11C2931.05,227.71,2458.23,621.6,2295.23,834.33z"/>
<path class="st0" d="M1792.53,1095.52l-0.37,0.45L1792.53,1095.52z M1835.66,1070.02c-0.2,0.09-0.4,0.18-0.6,0.27
	C1835.25,1070.2,1835.46,1070.11,1835.66,1070.02 M1848.64,1064.82c16.28-5.77,32.88-10.35,49.95-13.07
	C1850.89,1188.82,1707.61,1116.34,1848.64,1064.82 M1903.08,975.4c-0.15,0.22-0.3,0.44-0.45,0.66
	C1902.78,975.84,1902.93,975.62,1903.08,975.4 M1918.79,947.48c-0.09,0.2-0.17,0.4-0.26,0.6
	C1918.62,947.88,1918.7,947.68,1918.79,947.48 M1815.19,924.73c0.28,0.02,0.56,0.05,0.84,0.09
	C1815.75,924.79,1815.47,924.76,1815.19,924.73 M1827.11,882.22c-0.62,0.63-1.33,1.14-2.01,1.7
	C1825.78,883.36,1826.44,882.8,1827.11,882.22 M1831.03,878.26c-0.76,0.81-1.5,1.63-2.28,2.43
	C1829.51,879.88,1830.28,879.07,1831.03,878.26 M1880.36,848.58c58.8-10.46,41.52,37.77,9.76,61.32
	c-55.19,31.57-115.99,24.26-46.71-36.52C1842.56,874.07,1865.25,852.91,1880.36,848.58 M1756.33,832.02
	c-11.25,3.63-7.97,41.78-0.94,72.78c5.7,25.12,34.74,28.85,36.08,41.51c-11.78,116.54,97.18,87.17,132.67,8.32
	c-3.12,26.82-9.93,53.03-18.72,78.56c-8.17,8.67-26.16,9.2-39.08,13.57c-35.31,11.96-68.44,18.98-91.88,65.51
	c-12.2,24.22,12.89,43.38,36.5,35.48c37.67-10.83,72.69-31.47,90.39-67.76c24.29-49.82,143.26-10.66,253.67-114.92
	c-0.41,0.38-0.82,0.77-1.23,1.16c5.3-4.71,3.07-11.83-1.83-4.83c0.91-0.88,1.83-1.73,2.76-2.6
	c-65.48,57.83-155.14,64.56-237.89,75.13c12.65-35.81,26.15-73.34,24.29-111.8c-27.3,9.31-57.54,77.22-89.68,87.64
	c-10.82,3.51-28.67,1.69-35.4-10.9c-11.87-22.19-6.71-39.93,2.03-45.05c12.07-7.07,31.02-13,49.93-22.39
	c113.02-56.08,27.68-149.43-35.03-62.73c-0.06,0.09-0.06,0.09-0.06,0.09c-0.95,1.51-28.75,36.13-35.21,50.82
	c-36.34-15.66-24.88-63.78-25.55-92.65L1756.33,832.02z"/>
<path class="st0" d="M1578.01,640.83c-86.3,6.31-147.82,52.27-204.31,154.39c-21.67,39.17-36.76,79.1-47.68,101.79
	c8.66,0.9,32.19,37.24,40.1,21.82c50.52-98.5,67.24-156.45,145.12-201.69c35.98-20.89,81.69-20.03,118.62-14.18
	c94.85,15,121.24,61.83,142.19,62.07c6.47,0.07,37.37-7.04,37.28-10.28C1808.05,710.3,1656.71,635.08,1578.01,640.83z"/>
<path class="st1" d="M2186.78,791.78c-0.05,0.06-0.09,0.12-0.14,0.19C2186.68,791.9,2186.73,791.84,2186.78,791.78 M2270.33,618.79
	c-0.1,0.26-0.21,0.51-0.32,0.77C2270.11,619.31,2270.22,619.05,2270.33,618.79 M2270.86,614.97
	c-23.65,71.48-96.45,107.22-122.85,170.94c-0.92,17.14,13.33,36.55,24.94,23.92c38.82-58.85,106.19-114.5,135.59-179.64
	C2324.9,599.45,2297.75,526.56,2270.86,614.97"/>
<path class="st1" d="M2786.36,872.12c0.13,0.95,0.26,1.9,0.39,2.85C2786.63,874.02,2786.5,873.06,2786.36,872.12 M2758.07,788.62
	c-30.87,14.26-10.09,65.91-10.57,91.46c-0.24-1.77-0.48-3.54-0.71-5.3c2.7,17.14,3.94,34.46,6.04,51.68
	c-0.15-1.11-0.3-2.21-0.45-3.32c2.13,36.09,19.17,83.22-6.1,113.64c-9.33,3.85-14.98,13.76-12.18,23.92
	c8.64,25.86,39.34,12.01,49.23-5.73c26.43-39.61,13.38-91.03,8.55-135.19c0.03,0.27,0.07,0.53,0.11,0.8
	C2785,895.54,2796.05,776.68,2758.07,788.62"/>
<path class="st1" d="M2834.37,1181.47c0.18,0.41,0.35,0.82,0.52,1.24C2834.71,1182.29,2834.54,1181.88,2834.37,1181.47
	 M2778.71,1050.02c-26.04,23.24-31.42,31.56-23.24,68.57c8.15,27.85,4.58,108.78,49.78,93.56c18.31,21.88,48.12-6.6,30.35-27.82
	c-7.71-22.68-15.35-45.79-19.27-69.45C2810.39,1092.44,2816.8,1035.1,2778.71,1050.02"/>
<path class="st1" d="M3287.38,797.45c-12.92,18.89-4.21,49.17-6.66,71.08c-0.02,2.93-0.19,17.97,0.76,20.35
	c1.14,2.88,14.25-1.07,19.32-0.97c11.54,0.24,17.38-0.49,16.14-4.1c-0.71-2.08,4-11.88,3.73-15.29
	C3318.78,844.41,3333.65,770.05,3287.38,797.45"/>
<path class="st1" d="M3352.84,919.98c3.22,64.8,20.17,134.07,3.41,197.37c-14.65,12.36-46.23,0.61-46.79,27.49
	c8.24,42.1,90.57,19.23,93.58-13.32c6.38-69.01,1.27-143.34-3.51-211.04C3399.76,894.71,3352.62,894.06,3352.84,919.98"/>
<path class="st1" d="M2837.53,1136.07c-24.88,37.64,34.19,37.56,57.77,35.47c16.23-1.19,41.68,1.89,42.05-21.04
	c-1.46-27.66-33.46-18.29-51.88-18.75C2869.8,1134.61,2850.24,1124.4,2837.53,1136.07"/>
<path class="st1" d="M2226,1099.59c-0.07-0.03-0.14-0.06-0.21-0.09C2225.86,1099.53,2225.93,1099.56,2226,1099.59 M2230.55,1101.51
	c-1.51-0.65-3.04-1.28-4.56-1.92C2227.51,1100.25,2229.03,1100.89,2230.55,1101.51 M2282.43,1080.34c0.79,0.33,1.58,0.67,2.36,1
	C2284,1081.01,2283.21,1080.67,2282.43,1080.34 M2118.17,677.74c46.32-10.48,29.67,141.56,39.22,173.88
	c-0.24-1.76,2.26,9.64,2.02,7.87c27.64,140.89-13.13,200.87,77.33,206.54c-0.76-0.32,50.75,14.91,51.46,15.31
	c21.18,11.87,140.01,44.44,207.22,75.37c28.16,12.96,55.23,20.73,54.19,34.01c-0.4,5.09-11.58,11.56-18.59,18.59
	c-8.14,8.16-62,3.66-65.92-6.38c-21.31-12.38-63.97-32.76-62.95-32.32c-15.39-6.72-31.11-12.6-46.57-19.16
	c1.59,0.67-90.45-35.41-89.78-35.13c-167.77-58.83-127.09-99.45-150.1-250.65c0.24,1.77,0.48,3.55,0.71,5.3
	c-5.4-37.91-42-177.09-12.31-188.51L2118.17,677.74z"/>
<path class="st1" d="M1097.02,605.37c-47.25,18.7-76.58,86.94-99.43,130.11c-29.5,48.01-45.9,101.54-58.31,155.96
	c-5.97,15.28-16.68,33.99-12.58,50.17c4,2.92,11.3-0.12,14.42,2.61c4.55,6.41,19.3,1.85,26.78,2.31
	c13.64,0.26,13.49-13.19,12.73-23.2c-3.01-90.21,33.81-177.37,86.36-249.15l-0.34,0.22c11.72-14.74,22.28-30.95,37.92-41.74
	C1116.39,639.03,1107.71,603.34,1097.02,605.37"/>
<path class="st1" d="M906,1019.29c-21.07,2.88-40.08,12.43-46.49,26.22c-14.08,30.33,5.08,79.54,1.21,111.92
	c2.65,36.84,6.33,73.75,5.43,110.81c2.47,13.15-8.24,59.67,15.27,54.27c23.52-55.65,19.67-118.87,28.88-177.87
	c5.75-29.49,8.48-59.47,15.71-88.68C932.22,1030.01,942.44,1016.67,906,1019.29"/>
<path class="st2" d="M2131.6,718.56c-182.98,52.47-380.64,94.79-551.51,169.98c4.17,8.63,15.39-2.06,21.97-2.79
	c27.91-9.79,56.33-17.96,84.26-27.68c79.34-26.28,159.01-51.62,239.35-74.7C1939.15,775.89,2173.9,728.66,2131.6,718.56"/>
<path class="st2" d="M1846.14,772.57c-0.05,6.2,9.63,6.2,9.59,0C1855.78,766.37,1846.09,766.37,1846.14,772.57"/>
<path class="st2" d="M1718.67,1280.51c-32.37-14.09-67.24-23.07-98.22-39.29c-7.32-1.99,5.69-15.71,11.91-16.92
	c16.53,7.63,69.49,22.67,81.75,32.76c73.93,32.13,148.63,62.01,223.71,90.72l-0.24-0.15c42.03,19.53,83.25,40.71,124.99,60.77
	c-106.58-44.61-325.67-120.74-325.67-120.74C1730.32,1284.92,1723.73,1282.41,1718.67,1280.51 M2221.04,1341.36
	c-27.7-17.93-58.47-31.5-87.16-48.35c44.42-22.75,90.87-40.57,136.83-59.85c40.22-24.37,58.75-4.55,97.96,9.53
	c-0.06-0.03-0.11-0.08-0.17-0.12c10.75,5.2,21.86,9.75,33.02,13.88c-35.7,16.92-73.49,35.52-108.28,53.45
	C2270.33,1317.75,2241.28,1343.4,2221.04,1341.36 M2116.88,1073.73c18.35-6.6,37.08-14.98,55.85-19.45
	c127.53,31.79,260.46,70.67,374.55,137.83c-48.54,20.74-92.87,40.58-140.34,61.82c2.74-9.33-12.42-8.79-17.83-12.51
	c-37.64-12.97-75.12-45.41-113.92-20.56c-24.28,11.34-48.27,19.73-72.6,29.68c-128.07,51.7-78.94,41.43,11.7,97.95
	c-26.28,7-131.92,68.15-143.64,53.75c-138.27-72.51-285.41-125.04-429.89-183.92C1800.96,1175.66,1960.76,1129.25,2116.88,1073.73
	 M1965.91,716.41c53.61-15.07,110.11-27.93,165.58-33.94c23.51,118.63,29,234.63,43.06,345.45c3.85,20.19,0.08,14.87-16.41,20.29
	c-112.36,42.95-228.12,76.79-342.74,112.46c-64.78,19.72-132.75,31.38-194.83,56.75c-10.12,4.13-13.02-10.38-13.62-25.41
	c-3.44-85.44-26.24-170.79-25.11-256.84c-2.04-20.82-5.61-44.26-4.51-65.65c2.12-14.38-2.65-36.88,14.49-42.8
	C1714.64,784.32,1839.88,744.82,1965.91,716.41 M2114.52,324.53c-182.72-10.7-268.44,175.21-414.59,242.25
	c-24.3,15.26-8.8,54.01-6.98,77.58c12.06,52,61.73,85.25,108.5,103.37c-50.09,12.98-164.5,53.19-170.89,54.45
	c-77.57,30.66-64.97,7.61-60.46,113.4l-0.03-0.61c6.14,104.98,21.33,208.67,32.2,312.84c0.93,8.91,3.87,13.86,8.53,19.06
	c37.61,20.82,80.92,31.53,120.25,48.72l-0.48-0.26c101.15,39.52,205.18,71.04,305.57,112.77c12.21,5.17,32.36,15.99,43.69,9.1
	c104.9-42.94,205.93-91.98,306.98-143.08c33.67-16.2,68.01-31.09,102.1-46.35c21.73-12.43,54.21-16.35,69.82-34.93
	c-6.72-16.13-29.1-20.77-42.93-29.97c-104.14-53.01-218.21-84.77-330.1-117c-12.8-118.95-23.87-239.13-41.65-357.34
	c-1.9-24.16-27.37-13.75-42.17-11.78c-38.62,5.83-76.8,15.3-115.04,23.33c32.11-27.34,31.58-73.16,32.76-111.25l-0.01,0.01
	c23.77-136.84,160-57.28,244.95-83.86c-2.87,17.82,4.3,35.47,10.96,51.34l-0.14-0.42c7.92,19,15.64,37.05,30.88,50.36
	c5,22.8-42.79,87.31-59.23,109.14c-24.22,35.58-59.31,68.48-87.91,98.99c6.4,30.55,135.53-142.33,138.56-158.15
	C2390.52,509.37,2292.87,318.44,2114.52,324.53L2114.52,324.53z"/>
<path class="st2" d="M2297.12,634.95c-0.01,0.04-0.04,0.09-0.05,0.12l0.11-0.26C2297.16,634.86,2297.15,634.9,2297.12,634.95"/>
<path class="st2" d="M2206.41,648.11c-5.62,11.88-5.9,26.09-4.43,38.94C2200.04,676.77,2213.92,652.74,2206.41,648.11"/>
<path class="st2" d="M2218.67,678.22c-0.05,6.2,9.63,6.2,9.59,0C2228.3,672.02,2218.62,672.02,2218.67,678.22"/>
<path class="st2" d="M2206.04,648.13c-5.06,2.72-6.36,11.34,1.74,8.91C2208.33,654.08,2211.59,647.58,2206.04,648.13"/>
<path class="st2" d="M2209.31,651.83c0-0.04,0.01-0.09,0.01-0.14C2209.33,651.74,2209.31,651.78,2209.31,651.83"/>
<path class="st2" d="M2086.43,644.87c-0.05,6.2,9.64,6.2,9.59,0C2096.06,638.67,2086.38,638.67,2086.43,644.87"/>
<path class="st2" d="M2195.11,737.02l-0.04,0.3C2195.04,737.25,2195.11,737.12,2195.11,737.02 M2204.68,650.74
	c-8,7.86-8.14,21.43-10.39,32.04c0.05-0.42,0.11-0.85,0.16-1.27c-3.12,18.63-5.64,37.77,0.27,56.11
	c-8.14,5.45-17.63-1.86-20.77-9.71c-3.06-5.4-11.45-0.51-8.28,4.84c11.51,25.86,50.01,19.86,35.16-11.68
	c-0.43-16.57,0.52-33.33,3.37-49.67C2203.87,666.18,2214.92,645.28,2204.68,650.74"/>
<path class="st2" d="M2209.29,649.92c-0.03-0.07-0.06-0.14-0.1-0.21C2209.22,649.78,2209.25,649.84,2209.29,649.92"/>
<path class="st2" d="M2209.31,651.83c0.01-0.04,0.01-0.09,0.01-0.12C2209.33,651.74,2209.31,651.79,2209.31,651.83"/>
<path class="st2" d="M2159.13,768c0.3,0.23,0.6,0.46,0.88,0.69C2159.71,768.46,2159.42,768.23,2159.13,768 M2185.31,767.22
	c-8.83,11.45-41.2-10.46-33.5,7.13C2168.16,792.18,2212.86,766.74,2185.31,767.22"/>
<path class="st2" d="M2171.14,934.53C2171.14,934.53,2171.14,934.54,2171.14,934.53C2171.14,934.54,2171.14,934.53,2171.14,934.53
	 M2252.61,846.97c-0.16,0.2-0.31,0.4-0.47,0.61C2252.3,847.37,2252.45,847.17,2252.61,846.97 M2258.33,840.81
	c-15.4,16.58-30.74,34.46-48.27,49.37c-11.25,12.47-69.66,46.64-34.4,51.23c17.64,2.3,72.61-39.72,98.02-65.83
	c-0.29-24.82-85.95,79.44-99.38,54.05C2184.67,919.57,2284.62,849.56,2258.33,840.81"/>
<path class="st2" d="M2304.59,872.02c-16.67,15.62-45.1,52.05-69.23,39.4c-2.76-3.08-8.35-0.74-8.18,3.38
	C2234.96,954.47,2340.15,866.79,2304.59,872.02"/>
<path class="st2" d="M2265.73,922.09c0.11,0.01,0.22,0.03,0.33,0.04C2265.95,922.12,2265.84,922.1,2265.73,922.09 M2319.53,891.54
	c-17.25,23.51-37.86,36.39-64.52,27.67c-4.99,16.81,27.04,14.84,36.37,9.06C2300.05,925.91,2345.12,889.06,2319.53,891.54"/>
<path class="st2" d="M2341.08,862.2c-5.66-5.9-37.28-35.28-55.21-33.05c-17.93,2.23-47.33,20.67-70.41,15.81
	c-9.7-1.01-23.04-12.29-30.78-2.04c-16.71,30.26,35.7,51.26,43.66,30.26c-5.73-7.58-19.48,2.24-28-5.06
	c-10.39-1.23-12.91-25.25-0.39-18.07c17.16,7.86,37.37,5.85,54.03-2.42c3.42-3.48,32.13-8.5,32.29-8.49
	c20.85,0.42,51.61,24.51,54.51,43.42c-1.49,22.98-24.53,54.15-50.17,45.62c-24.15,11.71,28.17,15.87,35.08,0.56
	C2344.37,912.72,2360.55,883.78,2341.08,862.2z"/>
<path class="st3" d="M2295.38,828.57c-0.01,0-0.01,0-0.01,0C2295.38,828.57,2295.38,828.57,2295.38,828.57"/>
<path class="st3" d="M3114.8,990.68c0.35-0.03,0.7-0.05,1.06-0.07C3115.52,990.46,3115.17,990.55,3114.8,990.68"/>
<path class="st0" d="M3071.12,1327.37c-73.68-35.3,67.2-81.51,98.59-91.81c-2.43,6.45-5.01,12.83-7.74,19.17v-0.01
	C3146.22,1293.41,3118.93,1335.69,3071.12,1327.37 M3195.42,1143.68c0.01-0.02,0.03-0.04,0.04-0.05c-0.11,0.16-0.21,0.32-0.32,0.49
	L3195.42,1143.68z M3118.93,1062.12c-0.19,0.12-0.39,0.26-0.57,0.39C3118.54,1062.38,3118.74,1062.25,3118.93,1062.12
	 M3142.96,1097.71c-133.38-12.36,105.27-101.85,54.22-22.97C3182.56,1088.3,3163.55,1099.49,3142.96,1097.71 M3101.6,1003.67
	c-0.01,0-0.02,0-0.02,0c0.02,0,0.03-0.01,0.05-0.01c-44.29,47.7-12.09,73.91-28.31,107.82c-41.35,109.07,68.91,112.32,118.21,37.63
	c-4.46,124.65-86.85,58.48-152.07,153.58c-27.01,67.97,75.25,41.91,96.16,6.97c51.54-56.53,21.09-84.57,112.12-94.18
	c58.09-34.27-40.69-4.71-59.7,1.89c11.61-27.55,43.18-146.76-6.47-64.76c-44.58,61.81-125.99,25.12-93.14-50.32
	c42.76,34.21,98.65-3.75,126.43-40.09c36.46-55.86-61.77-35.92-84.2-15.71c-12.31,7.72-23.25,17.54-33.2,28.14
	c-10.79-22.41-2.45-52.43,11.5-71.88C3106.51,1003.05,3104.06,1003.36,3101.6,1003.67"/>
<path class="st0" d="M688.02,176.6c-0.89,0.4-1.79,0.79-2.67,1.19C686.23,177.39,687.13,176.99,688.02,176.6 M774.36,159.24
	c226.28-33.49,223.21,183.19,33.8,230.77c-107.85,16.14-237.09,18.26-322.93-59.4C559.23,247.6,658.13,163.16,774.36,159.24z
	 M820.52,91.78C677.93,108.15,567.6,224.29,468.48,315.09c-44.92-44.13-58.42-106.43-61.92-166.99
	c-24.48,3.12-43.45,16.66-59.43,34.03c-11.67,11.58-8.82,39.58-7.63,58.12c3.71,57.63,27.89,111.07,71.03,150.07
	C55.22,957.74,614.07,978.18,881.93,567.72c-7.89,79.1-39.61,154.99-54.93,233.21c26.28,2.98,26.4,21.43,21.35,43.42
	c-7.18,26.2-11.27,53.83-23.02,78.44c8.58-12.33,25.22-0.66,35.64,5.58c21.72,1.37,43.62,4.43,65.05,9.58
	c-0.77-15.98,30.81-73.72,13.15-73.62c-23.86,0-47.74-0.21-71.6,0.15c-4.16-2.89,4.23-17.11,4.33-23.82
	c20.51-118.57,73.62-233.02,77.88-353.03c1.42-39.97,15.59-69.39-22.57-24.55c-65.02,76.42-105.15,174.5-188.16,236
	c-53.33,40.71-114.58,76.94-183.02,81.22c-253.24,37.11-204.75-223.71-125.07-373.01C805.43,668.71,1292.32,47.49,820.52,91.78"/>
<path class="st0" d="M339.97,1246.06c0.06,0.53,0.11,1.05,0.16,1.57C340.08,1247.1,340.02,1246.58,339.97,1246.06 M742.35,882.33
	c-194.38,46.8-446.56,151-471.32,374.24c-40.52,365.41,499.9-24.58,537.32-217.38c1.34-6.89-4.91-9.73-6.28-12.5
	c-3.26-6.55-11.95-11.28-21.58-3.47c-8.58,6.95-12.1,23.83-16.47,33c-3.76,7.89-11.65,23.82-19.98,35.44
	c-5.43,7.57-12.2,11.58-14.17,16.31c-5.03,14.02-8.56,28.69-17.12,39.93c-64.03,84.09-154.09,163.56-276.85,182.68
	c-94.16,14.67-115.04-102.2-87.27-167.57c75.25-126.57,222.55-190.97,361.71-219.45c-7.08-4.94-12.23-20.9-0.31-22.73
	c9.19-0.33,15.32-1.23,19.72-9.35c18.34,1.44,16.69-17.66,24.04-31.92C749.97,880.47,746.16,881.42,742.35,882.33"/>
<path class="st3" d="M732.43,915.47c-0.22,0.14-0.49,0.21-0.63,0.43c0.65-0.26,1.31-0.51,1.96-0.77
	C733.32,915.22,732.88,915.33,732.43,915.47"/>
<path class="st3" d="M731.86,940.25c-0.1,0.14-0.2,0.29-0.31,0.43c1.1,0.14,1.03-0.83,1.28-1.65
	C732.51,939.44,732.19,939.84,731.86,940.25"/>
<path class="st3" d="M708.22,926.48c0.02-0.02,0.07-0.04,0.07-0.06C708.27,926.44,708.24,926.46,708.22,926.48"/>
<path class="st3" d="M808.14,933.54c-4.91,3.69-14.16,4.39-15.63,10.76c6.07-4.77,12.91-8.33,19.24-12.72
	C810.55,932.23,809.34,932.88,808.14,933.54"/>
<path class="st3" d="M785.22,1025.61c-0.03-0.01-0.06-0.01-0.08-0.01C785.16,1025.6,785.19,1025.61,785.22,1025.61"/>
<path class="st3" d="M868.23,540.51c0.71-1.07,1.42-2.14,2.15-3.21C869.65,538.37,868.94,539.44,868.23,540.51"/>
<path class="st2" d="M3298.24,1334.69c-19.3-89.85,49.83-275.07,4.72-333.93c3.22,38.97,7.29,85.17-0.57,126.74
	c0.05-0.42,0.11-0.85,0.16-1.27c-14.58,77.92-26.16,164.15-7.7,239.4c-110.73,3.75-222.21,2.07-332.96-0.98
	c-15.49-4.24-67.41,10.85-60.34-11.4c-15.76-117.72,65.2-225.56,63.07-339.32c98.52,5.81,205.79-9.71,307.14-5.67
	c3.72-0.76,17.92,2.74,17.36-4.8c-4.75-10.46-24.12-2.39-34.03-4.79c-81.89-0.41-163.62,3.98-245.38,7.32
	c-13.12,2.87-38.02-5.32-48.42,3.06c-8.48,5.41-3.82,25.25-7.12,34.32c-11.55,98.48-70.59,187.8-62.21,290.01
	c2.14,23.84-10.49,47.27,25.06,40.82c125.64,0.79,253.25,6.17,378.83,0.95c-0.02,0-0.03,0-0.05,0.01
	C3318.48,1374.3,3301.74,1350.31,3298.24,1334.69z M3298.6,1365.16c0,0-0.11,0.09-0.11,0.08L3298.6,1365.16z"/>
<path class="st2" d="M2903.42,1177.76c0.24,0.03,0.47,0.06,0.71,0.09C2903.9,1177.83,2903.66,1177.79,2903.42,1177.76
	 M3342.76,884.42c-159.18,9.92-360.99-23.39-509.92,29.2c-37.64,35.9-14.8,103.5-19.68,150.99c3.85,37.32-9.45,101.87,41.3,109.95
	c7.95,0.07,66.65,10.65,59.99-3.03c-22.61-10.39-54.01,3.06-75.75-13.36c-26.77-40.1-11.72-95.8-16.6-141.9
	c3.07-23.78-7.92-69.14,10.19-88.5c40.03-45.35,289.14-36.88,348.83-33.76c38.8,2.02,195.26-23.67,214.72,27.61
	c5.63,47.33,0.91,153.81,2.44,202.68c3.64,29.1-33.56,32.81-55.04,33.4c-6.43,0.32-32.39-0.33-19.31,10.79
	c26.04-1.7,55.98-0.24,77-18.58c16.13-14.1,2.67-147.79,6.95-167.64C3409.82,928.15,3409.53,885.83,3342.76,884.42"/>
<path class="st2" d="M3280.45,798.28c-0.02,0.12-0.04,0.25-0.06,0.38C3280.42,798.53,3280.44,798.4,3280.45,798.28 M3275.01,760.45
	c-105.52,0.44-210.92,6.83-316.34,9.82c-13.72,3.4-2.85,43.08-5.57,55.59c-0.12,17.72,0.35,36-0.27,53.67
	c-0.92,3.91-3.39,9.71,2,11.35c15.23-3.31,5-45.56,7.86-58.69c4.33-16.55-12.95-57.47,12.04-53.13c35.49,0.56,70.88-1.89,106.26-4.3
	c266.99,0.95,185.97-44.03,197.3,111.62c3.11,7.63,13.31,2.28,9.3-4.34C3277.2,858.22,3310.26,750.54,3275.01,760.45"/>
<path class="st2" d="M2951.59,798.77c-35.02-1.13-25.09,37.56-24.3,60.78c0.37,10.75-6.37,29.26,1.49,34.98
	c19.39-5.65-2.08-60.28,8.46-81.68c4.97-5.61,15.04-1.82,19.77-7.04C2959.23,802.24,2955.59,797.61,2951.59,798.77"/>
<path class="st2" d="M3286.97,790.2c-6.45,12.12,14.17,7.27,20.2,10.13c15.79,11.18-0.99,76.05,10.58,89.12
	c12.71,0.92,3.52-36.39,5.73-45.6C3324.39,816.42,3324.99,780.11,3286.97,790.2"/>
<path class="st2" d="M1098.01,697.48c-21.19,22.6-46.16,40.37-73.1,55.44c-12.86,10.79-35.22,13.54-40.88,30.83
	c0.82,31.78,74.99,19.94,82.04-5.11c-4.13-23.34-30.7,24.39-66.28,5.71C1011.61,779.46,1150.04,695.7,1098.01,697.48"/>
<path class="st2" d="M1148.82,747.76c-0.08,9.31,14.46,9.31,14.38,0C1163.28,738.45,1148.74,738.45,1148.82,747.76"/>
<path class="st2" d="M1036.49,709.46c-0.08,9.31,14.46,9.31,14.38,0C1050.95,700.15,1036.41,700.15,1036.49,709.46"/>
<path class="st2" d="M1033.13,651.95c-16.36,39.59-45.36,74.35-62.84,114.23c-5.93,12.67-57.02,147.81-20.4,120.19
	c6.96-42.76,19.78-84.8,38.09-124.12C991.34,743.16,1069.93,651.78,1033.13,651.95"/>
<path class="st2" d="M1100.47,833.23c-20.33,14.43-45.61,25.48-70.37,16.11c-8.98-1.74-18.06-10.85-27.09-8.02
	c-5.21,2.84-4.43,11.16,1.21,12.94l-0.42-0.18C1058.63,892.95,1145.49,828.67,1100.47,833.23"/>
<path class="st2" d="M1183.31,575.56c-32.13,1.34-66.89,5.98-95.26,21.99c-8.51,6.59-50.45,30.91-27.51,38.91
	c65.96-51.9,12.73-14.46,65.71,30.18c4.96,4.03,15.99,6.67,21.01-0.11c15.46,22.87,41.99,38.08,66.18,50.17
	c9.09,5.98,46.84,13.52,46.9,20.69c-8.6,19.93-33.46,70.51,6.66,68.66c93.22-32.93,25.19,102.91-27.37,61.03
	c-30.85-6.68,0.37,32.72,35.53,20.2c35.49-7.89,68.55-61.2,43.02-92.85c-4.63-13.18,14.52-32.84,17.15-48.87
	C1374.07,640.75,1278.66,574.32,1183.31,575.56L1183.31,575.56z"/>
<path class="st2" d="M823.47,922.5c-25.17,8.6-117.65,59.74-120.62,82.67c13.99,12.28,49.8-33.96,68.19-39.01
	c18.18-10.79,35.73-23.92,56.24-29.79C836.28,933.96,832.4,919.91,823.47,922.5"/>
<path class="st2" d="M715.48,1005.3c0.04,0.09,0.07,0.17,0.1,0.26C715.54,1005.47,715.51,1005.39,715.48,1005.3 M833.5,953.52
	c-22.61,3.47-113.91,73.63-120.01,45.59c-4.16-4.56-12.62-1.11-12.29,5.07c10.53,42.52,61.82-3.27,85.21-11.17
	C794.56,986.47,868.2,960.64,833.5,953.52"/>
<path class="st2" d="M756.55,1012.82c0.08,0.2,0.17,0.4,0.25,0.59C756.7,1013.22,756.62,1013.03,756.55,1012.82 M815.71,1005.95
	c-0.2,0.09-0.39,0.17-0.59,0.25C815.31,1006.11,815.51,1006.03,815.71,1005.95 M849.35,989.22c-28.28,17.78-76.29,38.36-99.93,12.74
	c-8.61,0.22-8.71,11.92-5.37,17.57C761.92,1048.04,897.64,999.3,849.35,989.22"/>
<path class="st2" d="M751.12,912.73c0.06-0.13,0.12-0.27,0.18-0.41C751.24,912.45,751.19,912.59,751.12,912.73 M758.04,896.87
	c-0.06,0.15-0.13,0.3-0.19,0.45C757.92,897.17,757.98,897.02,758.04,896.87 M793.53,797.28c-23.49,33.54-38.26,73.28-55.72,110.33
	c0.06-0.15,0.12-0.29,0.19-0.44c-11.41,25.07-19.74,51.45-28.5,77.52c0.04-0.1,0.08-0.2,0.12-0.29
	c2.63,50.22,33.54-63.36,41.5-71.67c0,0.01-0.01,0.02-0.01,0.03c0.24-0.58,0.48-1.15,0.73-1.72c-0.18,0.43-0.36,0.86-0.54,1.29
	c16.39-37.35,34.24-74.89,54.52-109.95C805.97,796.12,797.86,792.8,793.53,797.28"/>
<path class="st2" d="M707.47,1056.21c0.32,0.14,0.64,0.27,0.96,0.4C708.12,1056.47,707.78,1056.37,707.47,1056.21 M766.72,1034.75
	c-0.14,0.33-0.28,0.65-0.41,0.98C766.45,1035.4,766.59,1035.07,766.72,1034.75 M703.36,1007.3c-3.79,3.45-0.89,8.62-1.82,12.96
	c0.26,14.82-16.17,34.42-4.62,46.65c53.63,20.45,62.84,33.57,83.61-28.21c-0.24,0.56-0.48,1.13-0.72,1.71
	c1.01-2.35,2.02-4.7,3.02-7.05c-0.24,0.57-0.49,1.15-0.73,1.72c9.4-12.16-9.63-22.91-12.56-6.93c0.01-0.01,0.01-0.03,0.02-0.04
	c-0.28,0.64-0.55,1.29-0.82,1.93c0.24-0.57,0.48-1.15,0.72-1.72c-0.85,1.95-1.68,3.91-2.51,5.86c0.03-0.06,0.05-0.12,0.07-0.18
	c-6.45,10.66-8.78,29.29-17.92,35.73c-11.13-5.62-42.58-5.87-40.15-19.5C711.56,1039.28,726.77,998.52,703.36,1007.3"/>
<path class="st2" d="M797.02,802.36c5.01,18.21,51.87-2.01,48.79,22.01c-5.45,19.85-11.42,39.67-17.53,59.36
	c-0.81,13.77-22.69,34.98-8.63,44.92c16.36,0,42.48-100.38,40.21-117.64C857.84,798.46,798.18,786.77,797.02,802.36"/>
<path class="st2" d="M736.19,903.69c28.2-0.38-4.12,24.46-17.72,21.53c-31.16,0.3,4.85,23.37,3.25,31.44
	c-17.27,20-42.76-32.05-21.25-42.43c11.38-5.66,22.4,1.24,32.39-8.36L736.19,903.69z"/>
<path class="st2" d="M1327.46,934.44c-5.86-3.69-43.58-34.47-85.13-29.14c-129.83,14.63-269.06,64.48-394.54,5.59
	c-9.69-6.96-27.64,3.49-13.06,11.74c37.94,9.04,73.06,32.28,113.38,29.58c64.83,0.5,129.73-3.37,193.51-15.32
	c48.47-7.99,100.27-28.7,148.65-10.69c9.15,5.43,58.45,27.84,40.04,81.49c-70.73,131.97-319.03,4.36-432.4,11.2
	c-2.08,0.19-4.01,1.05-5.57,2.28c-0.86-1.84-2.83-3.55-6.21-5.04c-25.25,18.68-67.68,34.87-89.32,1.82c-2.53-2.85-7.58-2.71-10.16,0
	c-4.96,26.85,37.89,35.63,59.08,32.77c7.71,0.09,33.44-9.9,43.27-19.97c0.71,1.57,2.2,2.94,4.67,3.8
	c117.57-1.47,233.96,62.3,355.28,41.95c-0.33,0.04-0.65,0.09-0.97,0.13c33.81-5.99,77.49-16.11,91.23-51.64
	C1351.5,997.04,1353.14,955.95,1327.46,934.44z"/>
<path class="st2" d="M1309.66,974.03c0.05,0.12,0.1,0.24,0.15,0.35C1309.76,974.27,1309.71,974.15,1309.66,974.03 M1305.35,959.47
	c-7.08,10.43,13.84,17.79,1.22,31.86c-5.2,12.47,13.39,14.21,15.14,2.09C1329.19,982.04,1322.61,950.72,1305.35,959.47"/>
<path class="st2" d="M1248.3,910.43c-0.16,0.07-0.31,0.13-0.47,0.2C1247.98,910.57,1248.14,910.5,1248.3,910.43 M1281.67,888.17
	c-13.85,1.65-53.04,4.86-50.36,23.14c5.5,9.45,46-16.23,71.21-8.48c55.57,2.59,107.73,79.57,52.13,118.22
	c-10.34,9.23-24.09,11.09-36.15,16.2c-6.16,6.46,2.15,15.18,9.59,11.52C1445.71,1018.92,1383.96,876.49,1281.67,888.17"/>
<path class="st2" d="M856.69,1044.08c-7.34,2.1-4.81,10.12-3.94,15.68c4.84,74.11,5.6,148.49,11.23,222.44
	c2.25,10.58-1.64,70.19,17.02,42.19c-0.58-22.17-2.57-44.25-5.46-66.23c-0.05-52.7-3.65-105.09-6.43-157.68
	C864.08,1085.33,876.29,1046.92,856.69,1044.08"/>
<path class="st2" d="M1272.39,1345.16c-0.03,0.31-0.07,0.62-0.12,0.92C1272.31,1345.78,1272.35,1345.47,1272.39,1345.16
	 M1302.85,1080.17c-0.03,0.21-0.05,0.42-0.08,0.62C1302.79,1080.59,1302.82,1080.39,1302.85,1080.17 M1289.69,1058.44
	c-3.17,98.08-16.4,201.99-14.72,297.41c28.34-0.95,18.12-225.35,26.5-263.26c-1.17-12.22,10.81-36.4-4.59-41.34
	C1292.96,1051.25,1289.69,1054.52,1289.69,1058.44"/>
<path class="st2" d="M730.1,1120.76c-0.08,0.19-0.16,0.39-0.24,0.58C729.94,1121.15,730.02,1120.95,730.1,1120.76 M691.71,1064.09
	c-7.31,20.97,11.53,36.84,5.12,58.02c0.07-0.64,0.16-1.28,0.25-1.91c-6.22,14.06,17.93,29.79,26.65,15.59
	c5.08-26.79,29.4-27.66,36.84-50.42c3.46-5.21-2.27-12.46-8.13-10.56c-6.11,2.23-6.23,9.75-9.42,14.53
	c-1.26,1.88-2.99,3.33-5.76,3.87c-13.45,0.66-24.37,37.92-26.04,28.71c-0.03,0.21-0.05,0.42-0.08,0.63
	c4.99-16.6-2.86-30.8-6.97-45.47C711.41,1065.29,698.43,1045.72,691.71,1064.09"/>
<path class="st2" d="M846.37,1178.26c-0.09-0.01-0.26-0.03-0.35-0.05C846.14,1178.23,846.26,1178.24,846.37,1178.26 M850.1,1162.79
	c0.36,0.05,0.72,0.1,1.08,0.15C850.81,1162.89,850.46,1162.84,850.1,1162.79 M837,1041.06c-1.16,6.48-2.86,12.85-5.64,18.85
	c0.26-0.64,0.54-1.27,0.8-1.91c-24.26,77.2-81.63,102.49,13.86,120.22c-0.46-0.06-0.93-0.13-1.39-0.2c0.71,0.1,1.41,0.2,2.12,0.29
	c-0.13-0.02-0.26-0.03-0.38-0.05c11.74,5.63,29.03-4.41,13.47-13.85c-17.98-2.32-35.71-6.83-51.59-15.85
	C814.56,1138.61,879.79,1009.28,837,1041.06"/>
<path class="st2" d="M827.39,1163.65c-6.33,19.57-11.61,40.8-13.92,61.69c0.01-0.11,0.03-0.23,0.04-0.34
	c-2.77,35.89-20.51,70.77-22.35,105.77c20.74,26.02,35.88-99.06,39.21-112.54C828.51,1203.9,856.94,1155,827.39,1163.65"/>
<path class="st2" d="M2734.56,867.81c-10.32,19.24,50.87,104.69,19.58,87.54c-11.29-5.53-9.11,10.11,0.36,11.18
	c44.17,13.16,1.53-49.23-4.17-66.57C2743.68,893.89,2746.97,847.84,2734.56,867.81"/>
<path class="st2" d="M2762.95,899.18c-0.05,6.2,9.63,6.2,9.59,0C2772.58,892.98,2762.9,892.98,2762.95,899.18"/>
<path class="st2" d="M2683.11,910.67c-0.05,6.2,9.63,6.2,9.59,0C2692.74,904.46,2683.06,904.46,2683.11,910.67"/>
<path class="st2" d="M2717.36,991.35c-0.91,10.33,18.05,17.48,26.98,19.56c8.2,2.01,40.3-6.04,23.9-15.43
	C2740.17,1014.38,2731.9,984.39,2717.36,991.35"/>
<path class="st2" d="M2742.89,717.74c-32.81-2.22-28.91,24.09-46.35,15.09c-53.13,1.33-20.54,43.24-43.13,44.16
	c-111.62,35.44-91.51,135.93-31.04,210.59l-0.49-0.85c7.27,6.8,39.33,55.59,45.87,37.55c-25.65-27.72-51.97-57.14-68.71-92.22
	c22.33-1.34,40.95,50.29,52.4,18.49c2.83-7.46-7.91-13.92-10.68-20.6c-18.58-21.22-17.95-52.68-4.01-76.17
	c13.75-25.64,48.24,0.79,62.39-24.8c13.94,11.54,34.31-0.33,46.23-8.82c10.4-0.15,23.39,0.82,31.63-7.08
	c2.93,49.47,53.89,270.21-31.61,256.27c-22.48,18.83,43.13,8.42,47.19-11.24c24.8-76.47,1.4-168.16-5.3-246.16
	c25.35-1.19,48.2-41.51,16.32-50.07c6.16-24.54-11.7-42.09-35.96-29.08C2765.27,722.58,2753.4,717.46,2742.89,717.74"/>
<path class="st2" d="M2611,980.86c-30.64,41.14-43.88,100.04-23.59,148.55c-0.06-0.16-0.13-0.33-0.2-0.49
	c0.81,8.32,13.49,8.53,10.26-0.62C2558.53,1057.48,2638.54,969.06,2611,980.86"/>
<path class="st2" d="M2777.98,1295.23c0.02,0.13,0.04,0.26,0.06,0.39C2778,1295.49,2777.99,1295.36,2777.98,1295.23
	 M2777.39,1294.87c0.09,0.11,0.17,0.22,0.26,0.33C2777.56,1295.09,2777.47,1294.98,2777.39,1294.87 M2673.72,1231.76
	c8.74,31.05,66.12,52.29,97.65,58.95c-13.07,31.8,84.49,23.96,57.84-12.07c-5.06-6.83-47.79-26.65-44.49-9.57
	c55.68,11.79,47.27,41.87-4.95,27.57c6.42-4.29,33.3,3.57,23.51-10.72c-19.94-3.99-40.57-4.49-59.55-12.89
	c-20.07-7.3-39.22-18.83-54.98-33.23C2684.51,1236.58,2679.69,1226.94,2673.72,1231.76"/>
<path class="st2" d="M2807.83,1247.52c-19.13,11.12,58.49,24.2,21.46,42.62c-2.49,0.73-4.04,3.34-3.34,5.89
	C2843.89,1311.05,2871.05,1262.23,2807.83,1247.52"/>
<path class="st2" d="M2846.96,1261.8c-0.02,0.14-0.03,0.28-0.05,0.41C2846.92,1262.07,2846.94,1261.93,2846.96,1261.8
	 M2819.01,1234.31c-10.56,16.94,42.69,8.97,24.57,38.86C2849.53,1297.81,2878.85,1239.05,2819.01,1234.31"/>
<g>
	<path class="st2" d="M2848.51,1240.97c-0.28-0.04-0.57-0.08-0.85-0.12c0.01,0,0.01,0,0.02,0.01
		C2847.96,1240.89,2848.23,1240.93,2848.51,1240.97z"/>
	<path class="st2" d="M2847.63,1240.85l-0.03,0c0.02,0,0.04,0,0.05,0.01C2847.65,1240.85,2847.64,1240.85,2847.63,1240.85z"/>
	<path class="st2" d="M2885.53,1228.25c-0.02,0-0.04-0.01-0.06-0.01c0,0-0.01,0-0.01,0
		C2885.49,1228.24,2885.51,1228.25,2885.53,1228.25z"/>
	<path class="st2" d="M2844.99,1214.81c-23-3.02-51.54-5.89-73.41-14.81s-59.07-34.42-79.13-61.71c0.08,0.11,0.17,0.22,0.25,0.33
		c-37.31-39.76-31.57-115.72-45.18-91.25c2.59,34.88,24.31,81.65,37.64,97.06c13.33,15.41,60.6,57.27,89.27,67.22
		c28.67,9.95,79.58,10.44,111.04,16.59c30.53,4.19-25.64,17.84-37.8,12.61c-0.15-0.02-0.29-0.04-0.44-0.06
		c0.12,0.02,0.25,0.03,0.37,0.05c-6.05-2.92-17.51-0.36-9.99,7.33c20.73,5.24,48.28,5.11,65.04-9.91
		C2921.07,1208.12,2867.99,1217.84,2844.99,1214.81z"/>
</g>
</svg>
