<svg id="Layer_1" data-name="Layer 1" xmlns="http://www.w3.org/2000/svg" viewBox="0 0 444 112">
  <defs>
    <style>
      .self-1 {
        fill: #66499e;
      }
    </style>
  </defs>
  <title>Artboard 1</title>
  <path class="self-1" d="M43,41.29V54.83L16.39,47.68V75.07l26.69,6.58V95.19L1.57,83.32V30.18Z"/>
  <path class="self-1" d="M46,95.2V61l29.63-7.92V46.92L46,54.84V41.3L90.47,30.1V83.32Zm29.63-30L59.56,69.53v9.83L75.65,75Z"/>
  <path class="self-1" d="M93.51,1.61l14.69,4V87.22L93.51,83.35Z"/>
  <path class="self-1" d="M126,83.32l-14.69,3.89V5.57l14.69-4Z"/>
  <path class="self-1" d="M143.81,5.57V21.28l-14.82-4V1.61ZM129,83.32l14.82,3.88V34l-14.82-4Z"/>
  <path class="self-1" d="M194.56,96.95l-47.69,13.62V96.06l32.88-9.38V77.85l-32.88,9.37V34.06l47.69-13.6ZM179.74,64.6V38.12l-18.06,5.13V69.76Z"/>
  <path class="self-1" d="M197.6,20.5,244.21,33V61L229.4,57V42.59l-17-4.6V87.41L197.6,83.55Z"/>
  <path class="self-1" d="M394.68,20.5,441.29,33V61l-14.82-4V42.59l-17-4.6V79.73l-14.81-4.67Z"/>
  <path class="self-1" d="M247.26,87.29V53.06l29.63-7.92V39l-29.63,7.92V33L291.7,20.47V75.06Zm29.63-30-16.09,4.34v9.83l16.09-4.34Z"/>
  <path class="self-1" d="M391.63,75.06l-14.81,4.65V38l-17,5V83.32l-14.81,4V5.57l14.81-4V29.42l31.8-9Z"/>
  <path class="self-1" d="M342,32.83,294.74,20.47v86.16l14.82,4V78.72L342,87.29ZM327.16,69.94l-17.6-4.65V38l17.6,4.68Z"/>
</svg>
