#define 18_cce003704ad3242113a6ca44219aa2e83c558bd6954c174969e9ebf947328cae-7_width 24
#define 18_cce003704ad3242113a6ca44219aa2e83c558bd6954c174969e9ebf947328cae-7_height 24
static char 18_cce003704ad3242113a6ca44219aa2e83c558bd6954c174969e9ebf947328cae-7_bits[] = {
  0x0F, 0x00, 0xE0, 0x0F, 0x00, 0xD0, 0x02, 0x00, 0xC0, 0x48, 0x14, 0x21, 
  0x05, 0x88, 0x02, 0xA1, 0x02, 0x02, 0x24, 0x04, 0x00, 0x12, 0x92, 0x01, 
  0x05, 0x42, 0x00, 0x0F, 0x00, 0x00, 0x0F, 0x00, 0x00, 0x0F, 0x00, 0x00, 
  0x0F, 0x00, 0x00, 0x0F, 0x00, 0x00, 0x0F, 0x00, 0x00, 0x0F, 0x00, 0x00, 
  0x0F, 0x00, 0x00, 0x0F, 0x00, 0x00, 0x0F, 0x00, 0x00, 0x0F, 0x00, 0x00, 
  0x0F, 0x00, 0x00, 0x0F, 0x00, 0x00, 0x0F, 0x00, 0x00, 0x0F, 0x00, 0x00, 
  };
