#define 18_cce003704ad3242113a6ca44219aa2e83c558bd6954c174969e9ebf947328cae-5_width 48
#define 18_cce003704ad3242113a6ca44219aa2e83c558bd6954c174969e9ebf947328cae-5_height 48
static char 18_cce003704ad3242113a6ca44219aa2e83c558bd6954c174969e9ebf947328cae-5_bits[] = {
  0xFF, 0x01, 0x00, 0x00, 0x00, 0xFF, 0xFF, 0x00, 0x00, 0x00, 0x80, 0xFE, 
  0xFF, 0x00, 0x00, 0x00, 0x00, 0xFC, 0xFF, 0x00, 0x00, 0x00, 0x00, 0xFB, 
  0x4B, 0x00, 0x00, 0x00, 0x80, 0xF8, 0x12, 0x28, 0x08, 0x00, 0x02, 0xE6, 
  0x51, 0x4A, 0xC0, 0x49, 0x84, 0xF2, 0x45, 0x22, 0x16, 0x51, 0x01, 0x89, 
  0x28, 0x18, 0x68, 0x80, 0x09, 0x25, 0x22, 0x02, 0x00, 0x08, 0x04, 0x00, 
  0x06, 0x06, 0x92, 0x80, 0x0A, 0x00, 0x14, 0x44, 0xA5, 0x04, 0x02, 0x00, 
  0x29, 0x89, 0x10, 0x14, 0x0D, 0x00, 0x0A, 0x1A, 0x68, 0x40, 0x00, 0x00, 
  0x12, 0x02, 0x08, 0x80, 0x06, 0x00, 0x65, 0x69, 0xD4, 0x36, 0x09, 0x00, 
  0x45, 0x55, 0xA3, 0xAA, 0x0A, 0x00, 0xBB, 0x00, 0x00, 0x00, 0x00, 0x00, 
  0xFF, 0x00, 0x00, 0x00, 0x00, 0x00, 0xFF, 0x00, 0x00, 0x00, 0x00, 0x00, 
  0xFF, 0x00, 0x00, 0x00, 0x00, 0x00, 0xFF, 0x00, 0x00, 0x00, 0x00, 0x00, 
  0xFF, 0x00, 0x00, 0x00, 0x00, 0x00, 0xFF, 0x00, 0x00, 0x00, 0x00, 0x00, 
  0xFF, 0x00, 0x00, 0x00, 0x00, 0x00, 0xFF, 0x00, 0x00, 0x00, 0x00, 0x00, 
  0xFF, 0x00, 0x00, 0x00, 0x00, 0x00, 0xFF, 0x00, 0x00, 0x00, 0x00, 0x00, 
  0xFF, 0x00, 0x00, 0x00, 0x00, 0x00, 0xFF, 0x00, 0x00, 0x00, 0x00, 0x00, 
  0xFF, 0x00, 0x00, 0x00, 0x00, 0x00, 0xFF, 0x00, 0x00, 0x00, 0x00, 0x00, 
  0xFF, 0x00, 0x00, 0x00, 0x00, 0x00, 0xFF, 0x00, 0x00, 0x00, 0x00, 0x00, 
  0xFF, 0x00, 0x00, 0x00, 0x00, 0x00, 0xFF, 0x00, 0x00, 0x00, 0x00, 0x00, 
  0xFF, 0x00, 0x00, 0x00, 0x00, 0x00, 0xFF, 0x00, 0x00, 0x00, 0x00, 0x00, 
  0xFF, 0x00, 0x00, 0x00, 0x00, 0x00, 0xFF, 0x00, 0x00, 0x00, 0x00, 0x00, 
  0xFF, 0x00, 0x00, 0x00, 0x00, 0x00, 0xFF, 0x00, 0x00, 0x00, 0x00, 0x00, 
  0xFF, 0x00, 0x00, 0x00, 0x00, 0x00, 0xFF, 0x00, 0x00, 0x00, 0x00, 0x00, 
  0xFF, 0x00, 0x00, 0x00, 0x00, 0x00, 0xFF, 0x00, 0x00, 0x00, 0x00, 0x00, 
  0xFF, 0x00, 0x00, 0x00, 0x00, 0x00, 0xFF, 0x01, 0x00, 0x00, 0x00, 0x00, 
  };
