#define 18_cce003704ad3242113a6ca44219aa2e83c558bd6954c174969e9ebf947328cae-4_width 64
#define 18_cce003704ad3242113a6ca44219aa2e83c558bd6954c174969e9ebf947328cae-4_height 64
static char 18_cce003704ad3242113a6ca44219aa2e83c558bd6954c174969e9ebf947328cae-4_bits[] = {
  0xFF, 0x0F, 0x00, 0x00, 0x00, 0x00, 0xF0, 0xFF, 0xFF, 0x07, 0x00, 0x00, 
  0x00, 0x00, 0xC0, 0xFF, 0xFF, 0x07, 0x00, 0x00, 0x00, 0x00, 0xA0, 0xFF, 
  0xFF, 0x07, 0x00, 0x00, 0x00, 0x00, 0xC0, 0xFF, 0xFF, 0x07, 0x00, 0x00, 
  0x00, 0x00, 0x20, 0xFE, 0xFF, 0x07, 0x00, 0x00, 0x00, 0x00, 0x40, 0xFD, 
  0x03, 0x08, 0x00, 0x00, 0x00, 0x00, 0x30, 0xFA, 0x55, 0x12, 0x44, 0x88, 
  0x10, 0x84, 0x80, 0xF4, 0x80, 0x8A, 0x62, 0x68, 0x14, 0x14, 0x60, 0xF1, 
  0x3B, 0x28, 0x0A, 0x03, 0x85, 0x45, 0x80, 0xE5, 0x40, 0x51, 0x00, 0x94, 
  0x00, 0xA2, 0x21, 0xA4, 0x26, 0x40, 0x01, 0x10, 0x00, 0x28, 0x50, 0x59, 
  0xC2, 0x40, 0x01, 0xC4, 0x10, 0x52, 0x00, 0x00, 0x19, 0x50, 0xB0, 0x18, 
  0x14, 0x24, 0x01, 0x00, 0x98, 0x08, 0x08, 0x68, 0x00, 0xC2, 0x00, 0x00, 
  0x23, 0xB0, 0x60, 0x23, 0x68, 0x18, 0x00, 0x00, 0x26, 0x68, 0x40, 0x10, 
  0x18, 0x64, 0x01, 0x00, 0x90, 0x00, 0x52, 0x58, 0x00, 0x82, 0x00, 0x00, 
  0x69, 0x90, 0x02, 0x4A, 0x00, 0x1A, 0x00, 0x00, 0x46, 0x64, 0x01, 0x94, 
  0x81, 0x65, 0x00, 0x00, 0x95, 0x49, 0x49, 0x44, 0x24, 0xD4, 0x01, 0x00, 
  0x62, 0x36, 0x94, 0x39, 0x96, 0x09, 0x00, 0x00, 0xAB, 0xA9, 0x69, 0xA6, 
  0xA9, 0x66, 0x00, 0x00, 0x57, 0x02, 0x00, 0x00, 0x00, 0x00, 0x00, 0x00, 
  0xFF, 0x07, 0x00, 0x00, 0x00, 0x00, 0x00, 0x00, 0xFF, 0x07, 0x00, 0x00, 
  0x00, 0x00, 0x00, 0x00, 0xFF, 0x07, 0x00, 0x00, 0x00, 0x00, 0x00, 0x00, 
  0xFF, 0x07, 0x00, 0x00, 0x00, 0x00, 0x00, 0x00, 0xFF, 0x07, 0x00, 0x00, 
  0x00, 0x00, 0x00, 0x00, 0xFF, 0x07, 0x00, 0x00, 0x00, 0x00, 0x00, 0x00, 
  0xFF, 0x07, 0x00, 0x00, 0x00, 0x00, 0x00, 0x00, 0xFF, 0x07, 0x00, 0x00, 
  0x00, 0x00, 0x00, 0x00, 0xFF, 0x07, 0x00, 0x00, 0x00, 0x00, 0x00, 0x00, 
  0xFF, 0x07, 0x00, 0x00, 0x00, 0x00, 0x00, 0x00, 0xFF, 0x07, 0x00, 0x00, 
  0x00, 0x00, 0x00, 0x00, 0xFF, 0x07, 0x00, 0x00, 0x00, 0x00, 0x00, 0x00, 
  0xFF, 0x07, 0x00, 0x00, 0x00, 0x00, 0x00, 0x00, 0xFF, 0x07, 0x00, 0x00, 
  0x00, 0x00, 0x00, 0x00, 0xFF, 0x07, 0x00, 0x00, 0x00, 0x00, 0x00, 0x00, 
  0xFF, 0x07, 0x00, 0x00, 0x00, 0x00, 0x00, 0x00, 0xFF, 0x07, 0x00, 0x00, 
  0x00, 0x00, 0x00, 0x00, 0xFF, 0x07, 0x00, 0x00, 0x00, 0x00, 0x00, 0x00, 
  0xFF, 0x07, 0x00, 0x00, 0x00, 0x00, 0x00, 0x00, 0xFF, 0x07, 0x00, 0x00, 
  0x00, 0x00, 0x00, 0x00, 0xFF, 0x07, 0x00, 0x00, 0x00, 0x00, 0x00, 0x00, 
  0xFF, 0x07, 0x00, 0x00, 0x00, 0x00, 0x00, 0x00, 0xFF, 0x07, 0x00, 0x00, 
  0x00, 0x00, 0x00, 0x00, 0xFF, 0x07, 0x00, 0x00, 0x00, 0x00, 0x00, 0x00, 
  0xFF, 0x07, 0x00, 0x00, 0x00, 0x00, 0x00, 0x00, 0xFF, 0x07, 0x00, 0x00, 
  0x00, 0x00, 0x00, 0x00, 0xFF, 0x07, 0x00, 0x00, 0x00, 0x00, 0x00, 0x00, 
  0xFF, 0x07, 0x00, 0x00, 0x00, 0x00, 0x00, 0x00, 0xFF, 0x07, 0x00, 0x00, 
  0x00, 0x00, 0x00, 0x00, 0xFF, 0x07, 0x00, 0x00, 0x00, 0x00, 0x00, 0x00, 
  0xFF, 0x07, 0x00, 0x00, 0x00, 0x00, 0x00, 0x00, 0xFF, 0x07, 0x00, 0x00, 
  0x00, 0x00, 0x00, 0x00, 0xFF, 0x07, 0x00, 0x00, 0x00, 0x00, 0x00, 0x00, 
  0xFF, 0x07, 0x00, 0x00, 0x00, 0x00, 0x00, 0x00, 0xFF, 0x07, 0x00, 0x00, 
  0x00, 0x00, 0x00, 0x00, 0xFF, 0x07, 0x00, 0x00, 0x00, 0x00, 0x00, 0x00, 
  0xFF, 0x07, 0x00, 0x00, 0x00, 0x00, 0x00, 0x00, 0xFF, 0x07, 0x00, 0x00, 
  0x00, 0x00, 0x00, 0x00, 0xFF, 0x07, 0x00, 0x00, 0x00, 0x00, 0x00, 0x00, 
  0xFF, 0x0F, 0x00, 0x00, 0x00, 0x00, 0x00, 0x80, };
