#define 18_cce003704ad3242113a6ca44219aa2e83c558bd6954c174969e9ebf947328cae-8_width 16
#define 18_cce003704ad3242113a6ca44219aa2e83c558bd6954c174969e9ebf947328cae-8_height 16
static char 18_cce003704ad3242113a6ca44219aa2e83c558bd6954c174969e9ebf947328cae-8_bits[] = {
  0x07, 0xC0, 0x01, 0xC0, 0x82, 0x88, 0x28, 0x04, 0xA1, 0x04, 0x06, 0x01, 
  0x07, 0x00, 0x03, 0x00, 0x03, 0x00, 0x07, 0x00, 0x07, 0x00, 0x03, 0x00, 
  0x07, 0x00, 0x03, 0x00, 0x07, 0x00, 0x03, 0x00, };
