#define 18_cce003704ad3242113a6ca44219aa2e83c558bd6954c174969e9ebf947328cae-6_width 32
#define 18_cce003704ad3242113a6ca44219aa2e83c558bd6954c174969e9ebf947328cae-6_height 32
static char 18_cce003704ad3242113a6ca44219aa2e83c558bd6954c174969e9ebf947328cae-6_bits[] = {
  0x3F, 0x00, 0x00, 0xF8, 0x1F, 0x00, 0x00, 0xF4, 0x1F, 0x00, 0x00, 0xE0, 
  0x08, 0x00, 0x00, 0xD8, 0x91, 0x62, 0x60, 0xC4, 0x0C, 0x00, 0x00, 0x10, 
  0x42, 0x81, 0xC0, 0x00, 0x44, 0x28, 0x16, 0x00, 0x0B, 0x85, 0x84, 0x00, 
  0x60, 0x50, 0x30, 0x00, 0x44, 0x5A, 0x86, 0x00, 0x1B, 0x00, 0x20, 0x00, 
  0x1F, 0x00, 0x00, 0x00, 0x1F, 0x00, 0x00, 0x00, 0x1F, 0x00, 0x00, 0x00, 
  0x1F, 0x00, 0x00, 0x00, 0x1F, 0x00, 0x00, 0x00, 0x1F, 0x00, 0x00, 0x00, 
  0x1F, 0x00, 0x00, 0x00, 0x1F, 0x00, 0x00, 0x00, 0x1F, 0x00, 0x00, 0x00, 
  0x1F, 0x00, 0x00, 0x00, 0x1F, 0x00, 0x00, 0x00, 0x1F, 0x00, 0x00, 0x00, 
  0x1F, 0x00, 0x00, 0x00, 0x1F, 0x00, 0x00, 0x00, 0x1F, 0x00, 0x00, 0x00, 
  0x1F, 0x00, 0x00, 0x00, 0x1F, 0x00, 0x00, 0x00, 0x1F, 0x00, 0x00, 0x00, 
  0x1F, 0x00, 0x00, 0x00, 0x1F, 0x00, 0x00, 0x00, };
