#define 15115_a6a644d84431c66646be8c736095bf73a6de15e4d7ef0f99c26198da7e87e224-7_width 24
#define 15115_a6a644d84431c66646be8c736095bf73a6de15e4d7ef0f99c26198da7e87e224-7_height 24
static char 15115_a6a644d84431c66646be8c736095bf73a6de15e4d7ef0f99c26198da7e87e224-7_bits[] = {
  0xFF, 0xFF, 0xFF, 0x3F, 0xFD, 0xFF, 0xBF, 0xFC, 0xFF, 0x3F, 0xE0, 0xF3, 
  0x07, 0x68, 0xE5, 0x01, 0x00, 0xE0, 0x00, 0x60, 0xE4, 0x86, 0xC2, 0xC0, 
  0x03, 0xCD, 0xA2, 0x47, 0x3E, 0x00, 0x67, 0xBE, 0x61, 0x63, 0x19, 0xF4, 
  0x73, 0x8E, 0xE0, 0xF3, 0x28, 0xF0, 0xF7, 0xE8, 0xF3, 0xFF, 0xC6, 0xFB, 
  0xFF, 0xE0, 0xFF, 0xFF, 0xC4, 0xFF, 0x3F, 0x10, 0xFF, 0x0F, 0x00, 0xFC, 
  0x0F, 0x00, 0xFC, 0x0F, 0x00, 0xFC, 0x1F, 0x00, 0xFE, 0xFF, 0xFF, 0xFF, 
  };
