#define 15115_a6a644d84431c66646be8c736095bf73a6de15e4d7ef0f99c26198da7e87e224-8_width 16
#define 15115_a6a644d84431c66646be8c736095bf73a6de15e4d7ef0f99c26198da7e87e224-8_height 16
static char 15115_a6a644d84431c66646be8c736095bf73a6de15e4d7ef0f99c26198da7e87e224-8_bits[] = {
  0xEF, 0xFF, 0xAF, 0xFF, 0x07, 0xCE, 0x01, 0xD0, 0x00, 0xC6, 0x63, 0x02, 
  0xA1, 0x41, 0xDB, 0xC5, 0xDB, 0xC0, 0x1B, 0xEE, 0x3F, 0xEC, 0x1F, 0xFF, 
  0x07, 0xF8, 0x03, 0xF0, 0x03, 0xF0, 0x0F, 0xF8, };
