#define 29792_2ee8d979d5945aec9b9a594080c18a1e573e9fb8ab5c1c3354ce25981775b861-8_width 24
#define 29792_2ee8d979d5945aec9b9a594080c18a1e573e9fb8ab5c1c3354ce25981775b861-8_height 24
static char 29792_2ee8d979d5945aec9b9a594080c18a1e573e9fb8ab5c1c3354ce25981775b861-8_bits[] = {
  0xFF, 0xFF, 0xFF, 0x47, 0x01, 0xFC, 0x01, 0x00, 0xF0, 0x11, 0x00, 0xC0, 
  0x39, 0x00, 0x80, 0x78, 0xAD, 0x02, 0x29, 0xE6, 0x09, 0x03, 0x59, 0x85, 
  0x43, 0xD5, 0x85, 0xA3, 0x66, 0x89, 0x43, 0x9B, 0x86, 0x83, 0x66, 0x85, 
  0x07, 0xB5, 0xC2, 0x07, 0x68, 0xC3, 0x8F, 0xA1, 0xE1, 0x0F, 0x8E, 0xE0, 
  0x1F, 0x92, 0xF0, 0x3F, 0x2C, 0xF8, 0x3F, 0x30, 0xF8, 0x7F, 0x00, 0xFC, 
  0xFF, 0x01, 0xFF, 0xFF, 0x83, 0xFF, 0xFF, 0xEF, 0xFF, 0xFF, 0xFF, 0xFF, 
  };
