#define 29792_2ee8d979d5945aec9b9a594080c18a1e573e9fb8ab5c1c3354ce25981775b861-9_width 16
#define 29792_2ee8d979d5945aec9b9a594080c18a1e573e9fb8ab5c1c3354ce25981775b861-9_height 16
static char 29792_2ee8d979d5945aec9b9a594080c18a1e573e9fb8ab5c1c3354ce25981775b861-9_bits[] = {
  0xFF, 0xFF, 0x01, 0xE0, 0x04, 0x80, 0x8C, 0x82, 0x4D, 0x0B, 0x81, 0x14, 
  0xB1, 0x89, 0x53, 0x96, 0x83, 0x89, 0x23, 0xC6, 0x87, 0xC5, 0x47, 0xE2, 
  0x0F, 0xF0, 0x3F, 0xF8, 0x7F, 0xFC, 0xFF, 0xFF, };
