#define 27609_8d5f6bc1b6ba64c5f6f430ea7b5f46ba3eadbce3c0f8ebb7562bc84ab9396c75-7_width 24
#define 27609_8d5f6bc1b6ba64c5f6f430ea7b5f46ba3eadbce3c0f8ebb7562bc84ab9396c75-7_height 24
static char 27609_8d5f6bc1b6ba64c5f6f430ea7b5f46ba3eadbce3c0f8ebb7562bc84ab9396c75-7_bits[] = {
  0xFF, 0xFF, 0xFF, 0xFF, 0xFF, 0xFF, 0x03, 0x00, 0xC0, 0x03, 0x00, 0xC0, 
  0x03, 0x00, 0xC0, 0x03, 0x00, 0xC0, 0x03, 0x00, 0xC0, 0x03, 0x00, 0xC0, 
  0x03, 0x00, 0xC0, 0x03, 0x00, 0xC0, 0x03, 0x00, 0xC0, 0x03, 0x00, 0xC0, 
  0x03, 0x00, 0xC0, 0x03, 0x00, 0xC0, 0x03, 0x00, 0xC4, 0x03, 0x04, 0xC0, 
  0x03, 0x00, 0xC1, 0x07, 0x94, 0xC4, 0x83, 0x00, 0xC0, 0x03, 0x01, 0xC2, 
  0x03, 0x00, 0xF0, 0x97, 0x24, 0xC2, 0xFF, 0xFF, 0xFF, 0xFF, 0xFF, 0xFF, 
  };
