#define 27609_8d5f6bc1b6ba64c5f6f430ea7b5f46ba3eadbce3c0f8ebb7562bc84ab9396c75-2_width 96
#define 27609_8d5f6bc1b6ba64c5f6f430ea7b5f46ba3eadbce3c0f8ebb7562bc84ab9396c75-2_height 96
static char 27609_8d5f6bc1b6ba64c5f6f430ea7b5f46ba3eadbce3c0f8ebb7562bc84ab9396c75-2_bits[] = {
  0xFF, 0xFF, 0xFF, 0xFF, 0xFF, 0xFF, 0xFF, 0xFF, 0xFF, 0xFF, 0xFF, 0xFF, 
  0xFF, 0xFF, 0xFF, 0xFF, 0xFF, 0xFF, 0xFF, 0xFF, 0xFF, 0xFF, 0xFF, 0xFF, 
  0xFF, 0xFF, 0xFF, 0xFF, 0xFF, 0xFF, 0xFF, 0xFF, 0xFF, 0xFF, 0xFF, 0xFF, 
  0xFF, 0xFF, 0xFF, 0xFF, 0xFF, 0xFF, 0xFF, 0xFF, 0xFF, 0xFF, 0xFF, 0xFF, 
  0xFF, 0xFF, 0xFF, 0xFF, 0xFF, 0xFF, 0xFF, 0xFF, 0xFF, 0xFF, 0xFF, 0xFF, 
  0xFF, 0xFF, 0xFF, 0xFF, 0xFF, 0xFF, 0xFF, 0xFF, 0xFF, 0xFF, 0xFF, 0xFF, 
  0xFF, 0xFF, 0xFF, 0xFF, 0xFF, 0xFF, 0xFF, 0xFF, 0xFF, 0xFF, 0xFF, 0xFF, 
  0xFF, 0x97, 0x64, 0x55, 0x92, 0x64, 0x55, 0x92, 0x64, 0x55, 0xF2, 0xFF, 
  0xFF, 0x81, 0x00, 0x00, 0x00, 0x00, 0x00, 0x00, 0x00, 0x00, 0xC0, 0xFF, 
  0xFF, 0x01, 0x00, 0x00, 0x00, 0x00, 0x00, 0x00, 0x00, 0x00, 0x00, 0xFF, 
  0xFF, 0x00, 0x00, 0x00, 0x00, 0x00, 0x00, 0x00, 0x00, 0x00, 0x00, 0xFF, 
  0xFF, 0x00, 0x00, 0x00, 0x00, 0x00, 0x00, 0x00, 0x00, 0x00, 0x00, 0xFF, 
  0x7F, 0x00, 0x00, 0x00, 0x00, 0x00, 0x00, 0x00, 0x00, 0x00, 0x00, 0xFE, 
  0xFF, 0x00, 0x00, 0x00, 0x00, 0x00, 0x00, 0x00, 0x00, 0x00, 0x00, 0xFF, 
  0x7F, 0x00, 0x00, 0x00, 0x00, 0x00, 0x00, 0x00, 0x00, 0x00, 0x00, 0xFE, 
  0xFF, 0x00, 0x00, 0x00, 0x00, 0x00, 0x00, 0x00, 0x00, 0x00, 0x00, 0xFE, 
  0xFF, 0x00, 0x00, 0x00, 0x00, 0x00, 0x00, 0x00, 0x00, 0x00, 0x80, 0xFF, 
  0x7F, 0x00, 0x00, 0x00, 0x00, 0x00, 0x00, 0x00, 0x00, 0x00, 0x00, 0xFE, 
  0xFF, 0x01, 0x00, 0x00, 0x00, 0x00, 0x00, 0x00, 0x00, 0x00, 0x00, 0xFF, 
  0x7F, 0x00, 0x00, 0x00, 0x00, 0x00, 0x00, 0x00, 0x00, 0x00, 0x00, 0xFE, 
  0xFF, 0x00, 0x00, 0x00, 0x00, 0x00, 0x00, 0x00, 0x00, 0x00, 0x00, 0xFF, 
  0x7F, 0x00, 0x00, 0x00, 0x00, 0x00, 0x00, 0x00, 0x00, 0x00, 0x00, 0xFE, 
  0xFF, 0x00, 0x00, 0x00, 0x00, 0x00, 0x00, 0x00, 0x00, 0x00, 0x80, 0xFF, 
  0x7F, 0x00, 0x00, 0x00, 0x00, 0x00, 0x00, 0x00, 0x00, 0x00, 0x00, 0xFE, 
  0x7F, 0x00, 0x00, 0x00, 0x00, 0x00, 0x00, 0x00, 0x00, 0x00, 0x00, 0xFE, 
  0xFF, 0x01, 0x00, 0x00, 0x00, 0x00, 0x00, 0x00, 0x00, 0x00, 0x00, 0xFF, 
  0xFF, 0x00, 0x00, 0x00, 0x00, 0x00, 0x00, 0x00, 0x00, 0x00, 0x00, 0xFE, 
  0x7F, 0x00, 0x00, 0x00, 0x00, 0x00, 0x00, 0x00, 0x00, 0x00, 0x00, 0xFF, 
  0xFF, 0x00, 0x00, 0x00, 0x00, 0x00, 0x00, 0x00, 0x00, 0x00, 0x00, 0xFE, 
  0xFF, 0x01, 0x00, 0x00, 0x00, 0x00, 0x00, 0x00, 0x00, 0x00, 0x80, 0xFF, 
  0x7F, 0x00, 0x00, 0x00, 0x00, 0x00, 0x00, 0x00, 0x00, 0x00, 0x00, 0xFE, 
  0xFF, 0x00, 0x00, 0x00, 0x00, 0x00, 0x00, 0x00, 0x00, 0x00, 0x00, 0xFF, 
  0xFF, 0x01, 0x00, 0x00, 0x00, 0x00, 0x00, 0x00, 0x00, 0x00, 0x00, 0xFE, 
  0x7F, 0x00, 0x00, 0x00, 0x00, 0x00, 0x00, 0x00, 0x00, 0x00, 0x00, 0xFF, 
  0xFF, 0x00, 0x00, 0x00, 0x00, 0x00, 0x00, 0x00, 0x00, 0x00, 0x00, 0xFE, 
  0xFF, 0x01, 0x00, 0x00, 0x00, 0x00, 0x00, 0x00, 0x00, 0x00, 0x80, 0xFF, 
  0x7F, 0x00, 0x00, 0x00, 0x00, 0x00, 0x00, 0x00, 0x00, 0x00, 0x00, 0xFE, 
  0xFF, 0x00, 0x00, 0x00, 0x00, 0x00, 0x00, 0x00, 0x00, 0x00, 0x80, 0xFF, 
  0xFF, 0x01, 0x00, 0x00, 0x00, 0x00, 0x00, 0x00, 0x00, 0x00, 0x00, 0xFE, 
  0xFF, 0x00, 0x00, 0x00, 0x00, 0x00, 0x00, 0x00, 0x00, 0x00, 0x00, 0xFF, 
  0xFF, 0x00, 0x00, 0x00, 0x00, 0x00, 0x00, 0x00, 0x00, 0x00, 0x00, 0xFF, 
  0xFF, 0x00, 0x00, 0x00, 0x00, 0x00, 0x00, 0x00, 0x00, 0x00, 0x80, 0xFE, 
  0x7F, 0x01, 0x00, 0x00, 0x00, 0x00, 0x00, 0x00, 0x00, 0x00, 0x00, 0xFF, 
  0xFF, 0x00, 0x00, 0x00, 0x00, 0x00, 0x00, 0x00, 0x00, 0x10, 0x80, 0xFE, 
  0xFF, 0x01, 0x00, 0x00, 0x00, 0x00, 0x00, 0x00, 0x00, 0x10, 0x00, 0xFF, 
  0xFF, 0x00, 0x00, 0x00, 0x00, 0x00, 0x00, 0x00, 0x00, 0x00, 0x00, 0xFF, 
  0x7F, 0x01, 0x00, 0x00, 0x00, 0x00, 0x00, 0x00, 0x00, 0x00, 0x80, 0xFE, 
  0xFF, 0x00, 0x00, 0x00, 0x00, 0x00, 0x00, 0x00, 0x00, 0x00, 0x20, 0xFF, 
  0xFF, 0x00, 0x00, 0x00, 0x00, 0x00, 0x00, 0x00, 0x00, 0x20, 0x00, 0xFF, 
  0xFF, 0x00, 0x00, 0x00, 0x00, 0x00, 0x00, 0x00, 0x00, 0x00, 0x00, 0xFE, 
  0x7F, 0x41, 0x00, 0x00, 0x00, 0x00, 0x00, 0x00, 0x00, 0x00, 0x80, 0xFF, 
  0xFF, 0x00, 0x04, 0x00, 0x00, 0x00, 0x00, 0x00, 0x00, 0x00, 0x10, 0xFF, 
  0xFF, 0x01, 0x00, 0x00, 0x00, 0x00, 0x00, 0x00, 0x00, 0x41, 0x80, 0xFE, 
  0x7F, 0x01, 0x00, 0x00, 0x00, 0x00, 0x00, 0x00, 0x00, 0x10, 0x80, 0xFF, 
  0xFF, 0x00, 0x00, 0x00, 0x00, 0x00, 0x00, 0x00, 0x00, 0x00, 0x08, 0xFF, 
  0xFF, 0x21, 0x80, 0x00, 0x00, 0x00, 0x00, 0x00, 0x00, 0x08, 0x80, 0xFE, 
  0x7F, 0x00, 0x00, 0x00, 0x00, 0x00, 0x00, 0x00, 0x00, 0x40, 0x80, 0xFF, 
  0xFF, 0x01, 0x02, 0x40, 0x00, 0x00, 0x00, 0x00, 0x00, 0x04, 0x80, 0xFE, 
  0xFF, 0x88, 0x00, 0x00, 0x00, 0x00, 0x00, 0x00, 0x80, 0x00, 0x00, 0xFF, 
  0x7F, 0x00, 0x00, 0x00, 0x00, 0x00, 0x00, 0x00, 0x00, 0x20, 0x84, 0xFF, 
  0xFF, 0x01, 0x10, 0x00, 0x00, 0x3D, 0x38, 0xA0, 0x00, 0x21, 0x80, 0xFF, 
  0xFF, 0x81, 0x02, 0x00, 0x00, 0x0A, 0x24, 0x50, 0x40, 0x00, 0x01, 0xFE, 
  0x7F, 0x00, 0x00, 0x04, 0x00, 0x04, 0x42, 0x08, 0x03, 0x04, 0x80, 0xFF, 
  0xFF, 0x09, 0x00, 0x00, 0x00, 0x08, 0x81, 0x04, 0x0A, 0x21, 0x10, 0xFF, 
  0xFF, 0x01, 0x01, 0x12, 0x40, 0x04, 0x01, 0x0C, 0x11, 0x00, 0x80, 0xFE, 
  0xFF, 0x01, 0x00, 0x00, 0x00, 0x08, 0x03, 0x04, 0x43, 0x88, 0x88, 0xFF, 
  0xFF, 0x00, 0x00, 0x00, 0x02, 0x1C, 0x02, 0x04, 0x12, 0x0A, 0x20, 0xFF, 
  0x7F, 0x21, 0x42, 0x00, 0x00, 0x04, 0x01, 0x88, 0x01, 0x10, 0x81, 0xFE, 
  0xFF, 0x08, 0x04, 0x01, 0x00, 0x08, 0xC3, 0x06, 0x82, 0x22, 0x10, 0xFF, 
  0xFF, 0x01, 0x00, 0x10, 0x20, 0x04, 0x40, 0x48, 0x03, 0x00, 0x80, 0xFF, 
  0xFF, 0x90, 0x40, 0x10, 0x01, 0x1D, 0x1C, 0x70, 0x00, 0x40, 0x24, 0xFE, 
  0x7F, 0x05, 0x01, 0x00, 0x00, 0x2A, 0x28, 0x90, 0x44, 0x11, 0x80, 0xFF, 
  0xFF, 0x20, 0x00, 0x00, 0x10, 0x00, 0x40, 0x02, 0x20, 0x40, 0x20, 0xFF, 
  0xFF, 0x01, 0x42, 0x04, 0x00, 0x20, 0x00, 0x40, 0x02, 0x09, 0x84, 0xFF, 
  0xFF, 0x01, 0x00, 0x41, 0x00, 0x00, 0x05, 0x08, 0x05, 0x60, 0x00, 0xFE, 
  0x7F, 0x28, 0x09, 0x00, 0x82, 0x84, 0x20, 0x21, 0x90, 0x02, 0x8A, 0xFF, 
  0xFF, 0x21, 0x80, 0x00, 0x24, 0x11, 0x60, 0x40, 0x08, 0x22, 0x88, 0xFF, 
  0xFF, 0x41, 0x08, 0x51, 0x00, 0x08, 0x00, 0x28, 0x01, 0x88, 0x40, 0xFF, 
  0xFF, 0x28, 0xA0, 0x28, 0x81, 0x02, 0x29, 0x40, 0x80, 0x02, 0xA0, 0xFE, 
  0xFF, 0x01, 0x02, 0x00, 0x08, 0x20, 0x00, 0x02, 0x18, 0x20, 0x04, 0xFF, 
  0xFF, 0x03, 0x80, 0x20, 0x01, 0x40, 0x00, 0x20, 0x10, 0x00, 0x40, 0xFF, 
  0x7F, 0x20, 0x22, 0x08, 0x20, 0x01, 0x11, 0x02, 0x02, 0x94, 0x85, 0xFF, 
  0xFF, 0x49, 0x49, 0x00, 0x04, 0x08, 0x88, 0x00, 0x80, 0x00, 0x90, 0xFF, 
  0xFF, 0x21, 0x00, 0x41, 0x40, 0x20, 0x00, 0x48, 0x05, 0x06, 0x02, 0xFE, 
  0xFF, 0x00, 0x00, 0x02, 0x22, 0x01, 0x20, 0x11, 0x00, 0x04, 0x90, 0xFF, 
  0xFF, 0x45, 0x10, 0x10, 0x00, 0x20, 0x02, 0x04, 0x48, 0x90, 0x82, 0xFF, 
  0xFF, 0x01, 0x00, 0x80, 0x00, 0x00, 0x00, 0x00, 0x00, 0x00, 0x40, 0xFF, 
  0xFF, 0xBF, 0xDF, 0xB7, 0x76, 0xDB, 0x6E, 0x6B, 0xDD, 0x6E, 0xFD, 0xFF, 
  0xFF, 0xFF, 0xFF, 0xFF, 0xFF, 0xFF, 0xFF, 0xFF, 0xF7, 0xFF, 0xFD, 0xFF, 
  0xFF, 0xFF, 0xFD, 0xFF, 0xFF, 0xFD, 0xFF, 0xFF, 0xFF, 0xFF, 0xFF, 0xFF, 
  0xFF, 0x7F, 0xFF, 0xFF, 0xBF, 0xFF, 0xBF, 0xBF, 0xFF, 0xBF, 0xFF, 0xFF, 
  0xFF, 0xFF, 0xFF, 0xEB, 0xFF, 0xFF, 0xFF, 0xFF, 0xFF, 0xFF, 0xFF, 0xFF, 
  0xFF, 0xFF, 0xFF, 0xFF, 0xFF, 0xFF, 0xFF, 0xFF, 0xFF, 0xFF, 0xFF, 0xFF, 
  0xFF, 0xFF, 0xFF, 0xFF, 0xFF, 0xFF, 0xFF, 0xFF, 0xFF, 0xFF, 0xFF, 0xFF, 
  0xFF, 0xFF, 0xFF, 0xFF, 0xFF, 0xFF, 0xFF, 0xFF, 0xFF, 0xFF, 0xFF, 0xFF, 
  0xFF, 0xFF, 0xFF, 0xFF, 0xFF, 0xFF, 0xFF, 0xFF, 0xFF, 0xFF, 0xFF, 0xFF, 
  };
