#define 27609_8d5f6bc1b6ba64c5f6f430ea7b5f46ba3eadbce3c0f8ebb7562bc84ab9396c75-8_width 16
#define 27609_8d5f6bc1b6ba64c5f6f430ea7b5f46ba3eadbce3c0f8ebb7562bc84ab9396c75-8_height 16
static char 27609_8d5f6bc1b6ba64c5f6f430ea7b5f46ba3eadbce3c0f8ebb7562bc84ab9396c75-8_bits[] = {
  0xFF, 0xFF, 0x03, 0xC0, 0x03, 0x80, 0x01, 0x80, 0x01, 0x80, 0x03, 0x80, 
  0x03, 0xC0, 0x01, 0x80, 0x03, 0x80, 0x01, 0xC0, 0x03, 0x80, 0x01, 0xC4, 
  0x01, 0xC2, 0x83, 0xC0, 0x9F, 0xE5, 0xFF, 0xFF, };
