#define 2515_9ffdc9b8bd7588403d1d306e84f5274f86b60e8a3e0b45a9c5b045c7ee853677-7_width 24
#define 2515_9ffdc9b8bd7588403d1d306e84f5274f86b60e8a3e0b45a9c5b045c7ee853677-7_height 24
static char 2515_9ffdc9b8bd7588403d1d306e84f5274f86b60e8a3e0b45a9c5b045c7ee853677-7_bits[] = {
  0xFF, 0xFF, 0xFF, 0xFF, 0xFF, 0xFF, 0xFF, 0xFF, 0xFF, 0xFF, 0xFF, 0xFF, 
  0x7F, 0xFE, 0xFF, 0x7F, 0x60, 0xFF, 0x2F, 0xA2, 0xF9, 0x1F, 0x0E, 0xF2, 
  0x07, 0x03, 0xED, 0x0B, 0x01, 0xE2, 0x83, 0x03, 0xC0, 0x03, 0x82, 0xFD, 
  0x07, 0x00, 0xF5, 0x07, 0x00, 0xF8, 0x03, 0x00, 0xFE, 0x0F, 0x90, 0xFD, 
  0x8F, 0xA0, 0xFE, 0x1F, 0x95, 0xFF, 0x5F, 0xC8, 0xFF, 0x7F, 0xE1, 0xFF, 
  0xFF, 0xFF, 0xFF, 0xFF, 0xFF, 0xFF, 0xFF, 0xFF, 0xFF, 0xFF, 0xFF, 0xFF, 
  };
