#define 2515_9ffdc9b8bd7588403d1d306e84f5274f86b60e8a3e0b45a9c5b045c7ee853677-8_width 16
#define 2515_9ffdc9b8bd7588403d1d306e84f5274f86b60e8a3e0b45a9c5b045c7ee853677-8_height 16
static char 2515_9ffdc9b8bd7588403d1d306e84f5274f86b60e8a3e0b45a9c5b045c7ee853677-8_bits[] = {
  0xFF, 0xFF, 0xFF, 0xFF, 0xFF, 0xFF, 0x9F, 0xFF, 0x0B, 0xD8, 0xE7, 0xE4, 
  0x21, 0xC8, 0x03, 0xF0, 0x03, 0xD0, 0x03, 0xF4, 0x03, 0xFC, 0x07, 0xF8, 
  0x2F, 0xFE, 0xFF, 0xFF, 0xFF, 0xFF, 0xFF, 0xFF, };
