#define 29788_9185450be4b84c122213e53fa22a512c8f04412d58b686ab2633163a233ff732-7_width 24
#define 29788_9185450be4b84c122213e53fa22a512c8f04412d58b686ab2633163a233ff732-7_height 24
static char 29788_9185450be4b84c122213e53fa22a512c8f04412d58b686ab2633163a233ff732-7_bits[] = {
  0xFF, 0xFF, 0xFF, 0xFF, 0xFF, 0xFF, 0xE7, 0xFA, 0xFF, 0xDB, 0xBF, 0xFF, 
  0xEB, 0x4F, 0xFD, 0xD7, 0x51, 0xF8, 0xEF, 0x25, 0xF6, 0x77, 0x92, 0xF2, 
  0xFF, 0x51, 0xE8, 0x3F, 0x60, 0xD0, 0xBF, 0xA0, 0xA0, 0x7F, 0x50, 0xD0, 
  0xBF, 0x50, 0xA0, 0x7F, 0xA0, 0xD0, 0x7F, 0x70, 0xE0, 0x3F, 0x80, 0xD0, 
  0xFF, 0x00, 0xE0, 0x7F, 0x01, 0xD0, 0x7F, 0xAF, 0xFA, 0xFF, 0x62, 0xF6, 
  0xFF, 0x6F, 0xFE, 0xFF, 0xB7, 0xFD, 0xFF, 0xDF, 0xFF, 0xFF, 0xFF, 0xFF, 
  };
