#define 29788_9185450be4b84c122213e53fa22a512c8f04412d58b686ab2633163a233ff732-8_width 16
#define 29788_9185450be4b84c122213e53fa22a512c8f04412d58b686ab2633163a233ff732-8_height 16
static char 29788_9185450be4b84c122213e53fa22a512c8f04412d58b686ab2633163a233ff732-8_bits[] = {
  0xFF, 0xFF, 0xFF, 0xFF, 0xFB, 0xFD, 0x75, 0xF2, 0x7F, 0xF8, 0x1F, 0xC3, 
  0x0F, 0xC2, 0x1F, 0xA1, 0x0F, 0xC1, 0x1F, 0x82, 0x0F, 0xE0, 0x3F, 0xC0, 
  0xFF, 0xE6, 0xBF, 0xDB, 0xFF, 0xFD, 0xFF, 0xFF, };
