#define 27367_c7af0a62502dd101c3ce1d41229f419ffefc02e7d98177c5ad92754641f43f82-7_width 24
#define 27367_c7af0a62502dd101c3ce1d41229f419ffefc02e7d98177c5ad92754641f43f82-7_height 24
static char 27367_c7af0a62502dd101c3ce1d41229f419ffefc02e7d98177c5ad92754641f43f82-7_bits[] = {
  0xFF, 0xFF, 0xFF, 0xFF, 0x00, 0xFE, 0x7F, 0x00, 0xFE, 0xFF, 0x01, 0xFC, 
  0x3F, 0x00, 0xFC, 0x3F, 0x00, 0xF8, 0x9F, 0x00, 0xF0, 0x0F, 0x00, 0xF0, 
  0x0F, 0x05, 0xE0, 0x47, 0x00, 0xE0, 0x27, 0x0A, 0xC0, 0x83, 0x18, 0x80, 
  0x01, 0x3C, 0x80, 0x29, 0x3E, 0x00, 0x40, 0x26, 0x00, 0x05, 0x04, 0x80, 
  0x91, 0x12, 0xB2, 0x03, 0x82, 0xC8, 0x6B, 0x00, 0xD0, 0x87, 0x2A, 0xE6, 
  0x2F, 0x94, 0xF0, 0x9F, 0x01, 0xFB, 0xFF, 0xFF, 0xFF, 0xFF, 0xFF, 0xFF, 
  };
