#define 27367_c7af0a62502dd101c3ce1d41229f419ffefc02e7d98177c5ad92754641f43f82-8_width 16
#define 27367_c7af0a62502dd101c3ce1d41229f419ffefc02e7d98177c5ad92754641f43f82-8_height 16
static char 27367_c7af0a62502dd101c3ce1d41229f419ffefc02e7d98177c5ad92754641f43f82-8_bits[] = {
  0xFF, 0xFF, 0x1F, 0xF0, 0x0F, 0xF0, 0x0F, 0xF0, 0x67, 0xE0, 0x07, 0xC0, 
  0x43, 0xC0, 0x83, 0x80, 0x81, 0x01, 0xC2, 0x01, 0x59, 0x0A, 0x21, 0xD0, 
  0x13, 0xC2, 0x4B, 0xE0, 0xBF, 0xFF, 0xFF, 0xFF, };
