#define 8655_6cdb1030e4cacabd3b65c646d02da4ad57e622b59c83e0228bf14fb1170b8807-7_width 24
#define 8655_6cdb1030e4cacabd3b65c646d02da4ad57e622b59c83e0228bf14fb1170b8807-7_height 24
static char 8655_6cdb1030e4cacabd3b65c646d02da4ad57e622b59c83e0228bf14fb1170b8807-7_bits[] = {
  0xFF, 0xFF, 0xFF, 0x1F, 0x00, 0xFF, 0x0F, 0x00, 0xFE, 0x07, 0x00, 0xFC, 
  0x07, 0x00, 0xF8, 0x0F, 0x00, 0xF0, 0x07, 0x00, 0xE0, 0x07, 0x00, 0xE1, 
  0x07, 0xC0, 0xE0, 0x0F, 0xA0, 0xE1, 0x07, 0x70, 0xF0, 0x07, 0x20, 0xE0, 
  0x07, 0x58, 0xE0, 0x0F, 0xF8, 0xF0, 0x07, 0x78, 0xE0, 0x07, 0x0C, 0xE0, 
  0x07, 0x0C, 0xE0, 0x07, 0x0F, 0xE0, 0x8F, 0x05, 0xE0, 0x87, 0x03, 0xF0, 
  0x07, 0x00, 0xE0, 0x07, 0x00, 0xF0, 0x0F, 0x20, 0xF8, 0xFF, 0xFF, 0xFF, 
  };
