#define 8655_6cdb1030e4cacabd3b65c646d02da4ad57e622b59c83e0228bf14fb1170b8807-8_width 16
#define 8655_6cdb1030e4cacabd3b65c646d02da4ad57e622b59c83e0228bf14fb1170b8807-8_height 16
static char 8655_6cdb1030e4cacabd3b65c646d02da4ad57e622b59c83e0228bf14fb1170b8807-8_bits[] = {
  0xBF, 0xFD, 0x07, 0xF8, 0x03, 0xF0, 0x03, 0xE0, 0x03, 0xC0, 0x03, 0xC6, 
  0x03, 0xC6, 0x03, 0xC3, 0x03, 0xC6, 0x83, 0xC3, 0x83, 0xC0, 0xC3, 0xC0, 
  0x73, 0xE0, 0x03, 0xC0, 0x07, 0xE0, 0xFF, 0xFF, };
