#define 29216_0e48f81a647b0f524c9fba0b19dfa2d0952df2e6d161e1598b67b52b3df9a0b0-3_width 24
#define 29216_0e48f81a647b0f524c9fba0b19dfa2d0952df2e6d161e1598b67b52b3df9a0b0-3_height 24
static char 29216_0e48f81a647b0f524c9fba0b19dfa2d0952df2e6d161e1598b67b52b3df9a0b0-3_bits[] = {
  0xFF, 0xFF, 0xFF, 0xFF, 0xE7, 0xFF, 0xFF, 0xE7, 0xFF, 0x3F, 0xF7, 0xFC, 
  0x7F, 0xFF, 0xFE, 0xFF, 0xEF, 0xFF, 0xE7, 0x48, 0xE7, 0x5F, 0x24, 0xE2, 
  0xBF, 0xAA, 0xFC, 0x39, 0x11, 0xFD, 0x91, 0x44, 0xF8, 0x5F, 0x55, 0xAD, 
  0x5F, 0xA5, 0xFA, 0x5F, 0x2A, 0xF9, 0x51, 0x15, 0xFE, 0x5F, 0x48, 0xCD, 
  0xBF, 0x4A, 0xFE, 0x7F, 0x25, 0xFB, 0xE7, 0x88, 0xF3, 0xF7, 0xFF, 0xF7, 
  0x7F, 0x77, 0xFF, 0x3F, 0x77, 0xFF, 0xFF, 0x77, 0xFF, 0xFF, 0xFF, 0xFF, 
  };
