#define 29216_0e48f81a647b0f524c9fba0b19dfa2d0952df2e6d161e1598b67b52b3df9a0b0-4_width 24
#define 29216_0e48f81a647b0f524c9fba0b19dfa2d0952df2e6d161e1598b67b52b3df9a0b0-4_height 24
static char 29216_0e48f81a647b0f524c9fba0b19dfa2d0952df2e6d161e1598b67b52b3df9a0b0-4_bits[] = {
  0xFF, 0xFF, 0xFF, 0xFF, 0xE7, 0xFF, 0xFF, 0xE7, 0xFF, 0x3F, 0xF7, 0xFC, 
  0x7F, 0xFF, 0xFE, 0xFF, 0xEF, 0xFF, 0xE7, 0x00, 0xE7, 0x5F, 0x00, 0xE2, 
  0x3F, 0x00, 0xFC, 0x39, 0x00, 0xFC, 0x11, 0x00, 0xF8, 0x1F, 0x00, 0x88, 
  0x1F, 0x21, 0xF8, 0x9F, 0x00, 0xF8, 0x11, 0x00, 0xFC, 0x1F, 0x10, 0xCC, 
  0x3F, 0x00, 0xFE, 0x7F, 0x00, 0xFB, 0xE7, 0x80, 0xF3, 0xF7, 0xFF, 0xF7, 
  0x7F, 0x77, 0xFF, 0x3F, 0x77, 0xFF, 0xFF, 0x77, 0xFF, 0xFF, 0xFF, 0xFF, 
  };
