#define 29216_0e48f81a647b0f524c9fba0b19dfa2d0952df2e6d161e1598b67b52b3df9a0b0-1_width 16
#define 29216_0e48f81a647b0f524c9fba0b19dfa2d0952df2e6d161e1598b67b52b3df9a0b0-1_height 16
static char 29216_0e48f81a647b0f524c9fba0b19dfa2d0952df2e6d161e1598b67b52b3df9a0b0-1_bits[] = {
  0xFF, 0xFF, 0x7F, 0xFE, 0x6F, 0xF7, 0xFF, 0xFF, 0x13, 0xD8, 0x4F, 0xF5, 
  0xAD, 0xF8, 0x27, 0x82, 0x47, 0xE5, 0xA5, 0xFA, 0x5F, 0x94, 0x4F, 0xF9, 
  0x1B, 0xEC, 0xDF, 0xFB, 0x6F, 0xFB, 0xFF, 0xFF, };
