#define 29216_0e48f81a647b0f524c9fba0b19dfa2d0952df2e6d161e1598b67b52b3df9a0b0-14_width 24
#define 29216_0e48f81a647b0f524c9fba0b19dfa2d0952df2e6d161e1598b67b52b3df9a0b0-14_height 24
static char 29216_0e48f81a647b0f524c9fba0b19dfa2d0952df2e6d161e1598b67b52b3df9a0b0-14_bits[] = {
  0xFF, 0xEF, 0xFF, 0xFF, 0xE7, 0xFF, 0xBF, 0xE7, 0xFF, 0x3F, 0xE7, 0xFC, 
  0x3F, 0xF7, 0xFC, 0xF7, 0x04, 0xFF, 0x67, 0x00, 0xC7, 0x0F, 0x00, 0xE0, 
  0x3F, 0x00, 0xF8, 0x11, 0x00, 0xF8, 0x01, 0x00, 0xD8, 0x0F, 0x00, 0x80, 
  0x1F, 0x00, 0xD8, 0x0F, 0x00, 0xF8, 0x01, 0x00, 0xE0, 0x1B, 0x00, 0xC0, 
  0x3F, 0x00, 0xFC, 0x0F, 0x00, 0xF0, 0x67, 0x80, 0xF3, 0xE3, 0x22, 0xF7, 
  0x7F, 0x36, 0xFF, 0x3F, 0x67, 0xFE, 0x7F, 0x77, 0xFE, 0xFF, 0xF7, 0xFF, 
  };
