#define 29216_0e48f81a647b0f524c9fba0b19dfa2d0952df2e6d161e1598b67b52b3df9a0b0-13_width 16
#define 29216_0e48f81a647b0f524c9fba0b19dfa2d0952df2e6d161e1598b67b52b3df9a0b0-13_height 16
static char 29216_0e48f81a647b0f524c9fba0b19dfa2d0952df2e6d161e1598b67b52b3df9a0b0-13_bits[] = {
  0xFF, 0xFE, 0x6F, 0xFE, 0x6F, 0xF7, 0x5F, 0xFA, 0x13, 0xC8, 0x07, 0xF0, 
  0x01, 0xE0, 0x07, 0x80, 0x07, 0xE0, 0x01, 0xC0, 0x07, 0x80, 0x07, 0xF0, 
  0x13, 0xCC, 0xCF, 0xFB, 0x6F, 0xFA, 0x7F, 0xFF, };
