#define 29216_0e48f81a647b0f524c9fba0b19dfa2d0952df2e6d161e1598b67b52b3df9a0b0-0_width 16
#define 29216_0e48f81a647b0f524c9fba0b19dfa2d0952df2e6d161e1598b67b52b3df9a0b0-0_height 16
static char 29216_0e48f81a647b0f524c9fba0b19dfa2d0952df2e6d161e1598b67b52b3df9a0b0-0_bits[] = {
  0xFF, 0xFF, 0x7F, 0xFE, 0x6F, 0xF7, 0xFF, 0xFF, 0x13, 0xD8, 0x0F, 0xF8, 
  0x0D, 0xF0, 0x07, 0x80, 0x07, 0xE0, 0x05, 0xF0, 0x0F, 0x90, 0x0F, 0xF8, 
  0x1B, 0xEC, 0xDF, 0xFB, 0x6F, 0xFB, 0xFF, 0xFF, };
