#define 27629_b940f8c3bafff4f58e8d0e1715434e07718394c91569137cd2a6ecc1cc76aa74-7_width 24
#define 27629_b940f8c3bafff4f58e8d0e1715434e07718394c91569137cd2a6ecc1cc76aa74-7_height 24
static char 27629_b940f8c3bafff4f58e8d0e1715434e07718394c91569137cd2a6ecc1cc76aa74-7_bits[] = {
  0xFF, 0xFF, 0xFF, 0xBF, 0xFF, 0xFF, 0xFF, 0x3F, 0xF0, 0xFB, 0x1F, 0xF0, 
  0xF3, 0x3F, 0xF0, 0xE3, 0x1F, 0xF0, 0xCB, 0x37, 0xF0, 0x87, 0x1F, 0xF0, 
  0x07, 0x3F, 0xF0, 0x03, 0x1E, 0xF0, 0x07, 0x3C, 0xE0, 0x63, 0x18, 0xF0, 
  0xCB, 0x10, 0xF0, 0xE3, 0x21, 0xF0, 0xC7, 0x43, 0xF0, 0xC7, 0x07, 0xD0, 
  0xEB, 0x0F, 0xF0, 0xC7, 0x1F, 0xF2, 0x43, 0x0A, 0xF0, 0x07, 0x00, 0xF8, 
  0x03, 0x00, 0xF0, 0x0F, 0x21, 0xE2, 0xFF, 0xFF, 0xFF, 0xFF, 0xFF, 0xFF, 
  };
