#define 27629_b940f8c3bafff4f58e8d0e1715434e07718394c91569137cd2a6ecc1cc76aa74-8_width 16
#define 27629_b940f8c3bafff4f58e8d0e1715434e07718394c91569137cd2a6ecc1cc76aa74-8_height 16
static char 27629_b940f8c3bafff4f58e8d0e1715434e07718394c91569137cd2a6ecc1cc76aa74-8_bits[] = {
  0xFF, 0xFF, 0xFF, 0xF7, 0xFD, 0xE1, 0xFB, 0xE1, 0xF3, 0xE1, 0xE3, 0xC1, 
  0xC3, 0xE1, 0x83, 0xE1, 0x33, 0xE1, 0x3B, 0xC2, 0xF3, 0xE0, 0xFB, 0xE8, 
  0x03, 0xE0, 0x03, 0xE0, 0xF7, 0xFE, 0xFF, 0xFF, };
