#define 15998_b729288a39a404afe30da905721837b909c9c37c799e610527b7a047c0f4b2cb-1_width 16
#define 15998_b729288a39a404afe30da905721837b909c9c37c799e610527b7a047c0f4b2cb-1_height 16
static char 15998_b729288a39a404afe30da905721837b909c9c37c799e610527b7a047c0f4b2cb-1_bits[] = {
  0xBF, 0xFC, 0xFF, 0xF7, 0xFF, 0xF9, 0xFF, 0xFB, 0xFF, 0xC7, 0x73, 0xC0, 
  0x03, 0xC0, 0x13, 0xC1, 0x01, 0xC2, 0x03, 0xC0, 0x03, 0xE2, 0x03, 0xE8, 
  0x0F, 0xF8, 0x1F, 0xFC, 0xFF, 0xFF, 0x5F, 0xFF, };
