#define 15998_b729288a39a404afe30da905721837b909c9c37c799e610527b7a047c0f4b2cb-7_width 16
#define 15998_b729288a39a404afe30da905721837b909c9c37c799e610527b7a047c0f4b2cb-7_height 16
static char 15998_b729288a39a404afe30da905721837b909c9c37c799e610527b7a047c0f4b2cb-7_bits[] = {
  0xFF, 0xFF, 0xFF, 0xFF, 0xFF, 0xF8, 0xFF, 0xF7, 0xFF, 0xC6, 0x73, 0xC0, 
  0x03, 0xC1, 0x13, 0xC0, 0x01, 0xC2, 0x03, 0xC2, 0x03, 0xC4, 0x03, 0xE8, 
  0x0F, 0xF9, 0x1F, 0xFC, 0xFF, 0xFF, 0xFF, 0xFF, };
