#define 25067_dbd20111a78430f850985ebaf50424fd3403b24ff769a029725747677c03f503-21_width 24
#define 25067_dbd20111a78430f850985ebaf50424fd3403b24ff769a029725747677c03f503-21_height 24
static char 25067_dbd20111a78430f850985ebaf50424fd3403b24ff769a029725747677c03f503-21_bits[] = {
  0xFF, 0xFF, 0xFF, 0xFF, 0x01, 0xFF, 0x3F, 0x00, 0xFC, 0x0F, 0x00, 0xF8, 
  0x0F, 0x00, 0xF0, 0x07, 0x00, 0xE0, 0x07, 0x00, 0xE0, 0x03, 0x00, 0xC0, 
  0x07, 0x00, 0xC0, 0x01, 0x00, 0xC0, 0x01, 0x00, 0x84, 0x43, 0x00, 0x82, 
  0x65, 0x04, 0xE2, 0x87, 0x43, 0x85, 0xA9, 0x21, 0xEA, 0x57, 0x0E, 0xC2, 
  0xB7, 0x05, 0xE9, 0x47, 0x1C, 0xE8, 0x9F, 0x8A, 0xF1, 0x2F, 0x65, 0xF6, 
  0xBF, 0x92, 0xFD, 0x7F, 0x49, 0xFE, 0xFF, 0xEB, 0xFF, 0xFF, 0xFF, 0xFF, 
  };
