#define 25067_dbd20111a78430f850985ebaf50424fd3403b24ff769a029725747677c03f503-11_width 24
#define 25067_dbd20111a78430f850985ebaf50424fd3403b24ff769a029725747677c03f503-11_height 24
static char 25067_dbd20111a78430f850985ebaf50424fd3403b24ff769a029725747677c03f503-11_bits[] = {
  0xFF, 0xFF, 0xFF, 0xFF, 0x00, 0xFF, 0x3F, 0x00, 0xFC, 0x1F, 0x00, 0xF8, 
  0x0F, 0x00, 0xF0, 0x07, 0x00, 0xE0, 0x03, 0x00, 0xC0, 0x03, 0x00, 0xC0, 
  0x01, 0x00, 0x80, 0x03, 0x00, 0x80, 0x01, 0x00, 0x84, 0x43, 0x00, 0x84, 
  0x65, 0x01, 0xC6, 0x87, 0x44, 0x92, 0x29, 0x17, 0xC5, 0x55, 0x05, 0xA0, 
  0x4B, 0x0E, 0xF1, 0x67, 0x0A, 0xC9, 0x9F, 0xC8, 0xF0, 0x4F, 0x15, 0xF6, 
  0xBF, 0x92, 0xFE, 0x3F, 0x29, 0xFD, 0xFF, 0x69, 0xFF, 0xFF, 0xFF, 0xFF, 
  };
