#define 25067_dbd20111a78430f850985ebaf50424fd3403b24ff769a029725747677c03f503-22_width 16
#define 25067_dbd20111a78430f850985ebaf50424fd3403b24ff769a029725747677c03f503-22_height 16
static char 25067_dbd20111a78430f850985ebaf50424fd3403b24ff769a029725747677c03f503-22_bits[] = {
  0x7F, 0xFF, 0x0F, 0xF0, 0x07, 0xE0, 0x03, 0xC0, 0x03, 0xC0, 0x01, 0x80, 
  0x01, 0x80, 0x03, 0xC8, 0x59, 0xD8, 0x25, 0x88, 0x9B, 0xE0, 0xEB, 0xC4, 
  0x27, 0xF8, 0x9F, 0xF3, 0x7F, 0xFE, 0xFF, 0xFF, };
