#define 25067_dbd20111a78430f850985ebaf50424fd3403b24ff769a029725747677c03f503-6_width 24
#define 25067_dbd20111a78430f850985ebaf50424fd3403b24ff769a029725747677c03f503-6_height 24
static char 25067_dbd20111a78430f850985ebaf50424fd3403b24ff769a029725747677c03f503-6_bits[] = {
  0xFF, 0xFF, 0xFF, 0xFF, 0x81, 0xFF, 0x3F, 0x00, 0xFC, 0x1F, 0x00, 0xFA, 
  0x1F, 0x00, 0xF0, 0x07, 0x00, 0xF0, 0x07, 0x00, 0xC0, 0x47, 0x00, 0xC0, 
  0x01, 0x00, 0xA8, 0x0B, 0x00, 0xC0, 0x47, 0x08, 0x86, 0x93, 0x02, 0xA1, 
  0x6B, 0x86, 0xDD, 0x9F, 0x9B, 0xC6, 0x5B, 0x45, 0xFC, 0xD5, 0x96, 0xC1, 
  0x4F, 0x95, 0xC8, 0xBB, 0xBC, 0xFA, 0x6F, 0x2B, 0xF7, 0xDF, 0x9A, 0xF8, 
  0x7F, 0x66, 0xFE, 0xFF, 0xAA, 0xFF, 0xFF, 0xDF, 0xFF, 0xFF, 0xFF, 0xFF, 
  };
