#define 25067_dbd20111a78430f850985ebaf50424fd3403b24ff769a029725747677c03f503-2_width 16
#define 25067_dbd20111a78430f850985ebaf50424fd3403b24ff769a029725747677c03f503-2_height 16
static char 25067_dbd20111a78430f850985ebaf50424fd3403b24ff769a029725747677c03f503-2_bits[] = {
  0xFF, 0xFF, 0x4F, 0xF8, 0x17, 0xE4, 0x0B, 0xF1, 0x45, 0x88, 0x15, 0xE0, 
  0xA3, 0x94, 0x5B, 0xEA, 0xB5, 0xB5, 0xEF, 0xDE, 0x77, 0xD5, 0xDD, 0xDA, 
  0xF7, 0xEA, 0x6F, 0xFF, 0xDF, 0xF5, 0xFF, 0xFF, };
