#define 25067_dbd20111a78430f850985ebaf50424fd3403b24ff769a029725747677c03f503-12_width 16
#define 25067_dbd20111a78430f850985ebaf50424fd3403b24ff769a029725747677c03f503-12_height 16
static char 25067_dbd20111a78430f850985ebaf50424fd3403b24ff769a029725747677c03f503-12_bits[] = {
  0xFF, 0xFF, 0x0F, 0xF0, 0x07, 0xE0, 0x03, 0xC0, 0x01, 0x80, 0x01, 0x80, 
  0x01, 0x80, 0x03, 0x90, 0x51, 0xD0, 0x2D, 0x84, 0x63, 0xC0, 0x95, 0xA8, 
  0xC7, 0xFA, 0x17, 0xE0, 0xAF, 0xF5, 0xFF, 0xFF, };
