#define 25067_dbd20111a78430f850985ebaf50424fd3403b24ff769a029725747677c03f503-7_width 16
#define 25067_dbd20111a78430f850985ebaf50424fd3403b24ff769a029725747677c03f503-7_height 16
static char 25067_dbd20111a78430f850985ebaf50424fd3403b24ff769a029725747677c03f503-7_bits[] = {
  0xFF, 0xFF, 0x0F, 0xF0, 0x0F, 0xF0, 0x03, 0xE0, 0x01, 0x80, 0x03, 0xC0, 
  0x43, 0x90, 0x8B, 0xE0, 0x17, 0x88, 0xEB, 0xDA, 0x77, 0xCA, 0x55, 0xD1, 
  0xAF, 0xF9, 0xD7, 0xE4, 0xFF, 0xFF, 0xFF, 0xFF, };
