#define 26228_8f5d14edbd97bfa9b945b385ecd4d788edeb3b769c3a28bb0d760ad0c2245cb9-6_width 24
#define 26228_8f5d14edbd97bfa9b945b385ecd4d788edeb3b769c3a28bb0d760ad0c2245cb9-6_height 24
static char 26228_8f5d14edbd97bfa9b945b385ecd4d788edeb3b769c3a28bb0d760ad0c2245cb9-6_bits[] = {
  0xFF, 0xFF, 0xFF, 0xFF, 0xFF, 0xFF, 0xFF, 0x13, 0xFF, 0xFF, 0x84, 0xFC, 
  0x7F, 0x40, 0xF9, 0x1F, 0x00, 0xF4, 0x0F, 0x00, 0xE9, 0x0F, 0x00, 0xE0, 
  0x07, 0x00, 0xD0, 0x07, 0x00, 0xC0, 0x07, 0x20, 0xD0, 0x07, 0x00, 0xC0, 
  0x07, 0x00, 0xE0, 0x07, 0x04, 0xC0, 0x07, 0x00, 0xF0, 0x07, 0x10, 0xF0, 
  0x0F, 0x00, 0xF8, 0x1F, 0x00, 0xF8, 0x3F, 0x00, 0xFE, 0x7F, 0x00, 0xFE, 
  0xFF, 0xC1, 0xFF, 0xFF, 0xFF, 0xFF, 0xFF, 0xFF, 0xFF, 0xFF, 0xFF, 0xFF, 
  };
