#define 26228_8f5d14edbd97bfa9b945b385ecd4d788edeb3b769c3a28bb0d760ad0c2245cb9-7_width 16
#define 26228_8f5d14edbd97bfa9b945b385ecd4d788edeb3b769c3a28bb0d760ad0c2245cb9-7_height 16
static char 26228_8f5d14edbd97bfa9b945b385ecd4d788edeb3b769c3a28bb0d760ad0c2245cb9-7_bits[] = {
  0xFF, 0xFF, 0x7F, 0xF8, 0x1F, 0xE1, 0x07, 0xC4, 0x07, 0xD0, 0x03, 0x80, 
  0x03, 0xA0, 0x03, 0x80, 0x03, 0x80, 0x03, 0xC0, 0x03, 0xE0, 0x03, 0xF0, 
  0x0F, 0xF8, 0x3F, 0xF8, 0xFF, 0xFF, 0xFF, 0xFF, };
